<svg width="145" height="17" viewBox="0 0 145 17" fill="none" xmlns="http://www.w3.org/2000/svg">
<path d="M9.68893 10.7847C9.68893 11.3314 9.57559 11.838 9.34893 12.3047C9.12226 12.7714 8.81559 13.198 8.42893 13.5847C8.04226 13.958 7.58893 14.2914 7.06893 14.5847C6.56226 14.8647 6.02226 15.1047 5.44893 15.3047C4.88893 15.4914 4.30893 15.638 3.70893 15.7447C3.12226 15.838 2.55559 15.8847 2.00893 15.8847C1.51559 15.8847 1.05559 15.8447 0.628926 15.7647C1.26893 13.4314 1.77559 11.0847 2.14893 8.72469C2.53559 6.35135 2.90226 3.96469 3.24893 1.56469C3.94226 1.41802 4.66226 1.29135 5.40893 1.18469C6.15559 1.06469 6.92893 1.00469 7.72893 1.00469C8.06226 1.00469 8.41559 1.04469 8.78893 1.12469C9.16226 1.20469 9.50226 1.35135 9.80893 1.56469C10.1156 1.77802 10.3689 2.05802 10.5689 2.40469C10.7823 2.75135 10.8889 3.19135 10.8889 3.72469C10.8889 4.23135 10.8023 4.70469 10.6289 5.14469C10.4689 5.58469 10.2556 5.98469 9.98893 6.34469C9.73559 6.70469 9.44226 7.01802 9.10893 7.28469C8.77559 7.53802 8.43559 7.73135 8.08893 7.86469C8.26226 7.95802 8.44226 8.09135 8.62893 8.26469C8.81559 8.43802 8.98893 8.64469 9.14893 8.88469C9.30893 9.11135 9.43559 9.38469 9.52893 9.70469C9.63559 10.0247 9.68893 10.3847 9.68893 10.7847ZM5.10893 8.70469C5.05559 9.02469 5.00226 9.31135 4.94893 9.56469C4.90893 9.80469 4.86893 10.038 4.82893 10.2647C4.78893 10.4914 4.74226 10.7314 4.68893 10.9847C4.64893 11.2247 4.60226 11.5114 4.54893 11.8447C4.80226 11.818 5.08893 11.7714 5.40893 11.7047C5.72893 11.638 6.03559 11.538 6.32893 11.4047C6.62226 11.258 6.86893 11.0714 7.06893 10.8447C7.26893 10.6047 7.36893 10.318 7.36893 9.98469C7.36893 9.74469 7.30226 9.54469 7.16893 9.38469C7.04893 9.22469 6.88893 9.09135 6.68893 8.98469C6.50226 8.87802 6.29559 8.80469 6.06893 8.76469C5.84226 8.71135 5.62893 8.68469 5.42893 8.68469C5.36226 8.68469 5.30226 8.68469 5.24893 8.68469C5.20893 8.68469 5.16226 8.69135 5.10893 8.70469ZM6.00893 3.86469C5.98226 4.01135 5.94893 4.18469 5.90893 4.38469C5.88226 4.58469 5.84893 4.79802 5.80893 5.02469C5.76893 5.23802 5.72226 5.45135 5.66893 5.66469C5.62893 5.87802 5.59559 6.06469 5.56893 6.22469C5.86226 6.17135 6.15559 6.09802 6.44893 6.00469C6.74226 5.91135 7.00226 5.81135 7.22893 5.70469C7.46893 5.58469 7.65559 5.45802 7.78893 5.32469C7.93559 5.19135 8.00893 5.04469 8.00893 4.88469C8.00893 4.68469 7.94893 4.52469 7.82893 4.40469C7.70893 4.27135 7.54893 4.16469 7.34893 4.08469C7.16226 4.00469 6.96226 3.95135 6.74893 3.92469C6.54893 3.88469 6.36893 3.86469 6.20893 3.86469H6.00893ZM9.36361 15.8247L11.9836 1.60469L18.3036 1.06469C18.2103 1.35802 18.1303 1.65802 18.0636 1.96469C17.9969 2.21802 17.9303 2.48469 17.8636 2.76469C17.8103 3.03135 17.7636 3.27135 17.7236 3.48469C17.5903 3.49802 17.3969 3.51135 17.1436 3.52469C16.9036 3.52469 16.6436 3.53135 16.3636 3.54469C16.0836 3.54469 15.7969 3.54469 15.5036 3.54469C15.2236 3.54469 14.9769 3.54469 14.7636 3.54469L14.0636 7.12469C14.4769 7.09802 14.8636 7.07802 15.2236 7.06469C15.5169 7.05135 15.8169 7.04469 16.1236 7.04469C16.4303 7.04469 16.6569 7.03802 16.8036 7.02469C16.7503 7.39802 16.6969 7.76469 16.6436 8.12469C16.6036 8.48469 16.5503 8.85135 16.4836 9.22469C16.3503 9.23802 16.1303 9.25135 15.8236 9.26469C15.5303 9.26469 15.2303 9.27135 14.9236 9.28469C14.5769 9.29802 14.1969 9.31135 13.7836 9.32469L13.1036 13.0047L16.0236 12.5447L15.8236 14.8247L9.36361 15.8247ZM17.82 15.8247C18.1267 14.358 18.42 12.9114 18.7 11.4847C18.82 10.8847 18.94 10.258 19.06 9.60469C19.18 8.95135 19.2934 8.31135 19.4 7.68469C19.52 7.04469 19.62 6.43135 19.7 5.84469C19.7934 5.24469 19.8734 4.69802 19.94 4.20469C19.6334 4.16469 19.32 4.15135 19 4.16469C18.6934 4.17802 18.3867 4.13802 18.08 4.04469C18.0934 3.83135 18.1 3.58469 18.1 3.30469C18.1 3.02469 18.1067 2.74469 18.12 2.46469C18.1334 2.15802 18.1467 1.83135 18.16 1.48469C18.5067 1.51135 18.8534 1.53135 19.2 1.54469C19.5467 1.55802 19.8934 1.56469 20.24 1.56469C20.92 1.56469 21.5734 1.55135 22.2 1.52469C22.84 1.48469 23.4267 1.44469 23.96 1.40469C24.5067 1.35135 25.04 1.29135 25.56 1.22469L25.34 2.30469C25.2734 2.61135 25.2067 2.92469 25.14 3.24469C25.0867 3.56469 25.0334 3.83802 24.98 4.06469C24.6867 4.14469 24.3867 4.20469 24.08 4.24469C23.7867 4.27135 23.4934 4.31135 23.2 4.36469C23.1067 4.81802 23.0067 5.32469 22.9 5.88469C22.7934 6.43135 22.6867 7.00469 22.58 7.60469C22.4867 8.19135 22.3934 8.79135 22.3 9.40469C22.2067 10.018 22.1134 10.6047 22.02 11.1647C21.8067 12.4847 21.6067 13.8514 21.42 15.2647L17.82 15.8247ZM24.0861 15.8847L25.6061 1.68469C26.2328 1.65802 26.8194 1.59802 27.3661 1.50469C27.9261 1.39802 28.4794 1.32469 29.0261 1.28469C29.0261 1.29802 29.0061 1.43802 28.9661 1.70469C28.9261 1.95802 28.8728 2.29802 28.8061 2.72469C28.7394 3.13802 28.6661 3.61135 28.5861 4.14469C28.5061 4.66469 28.3861 5.38469 28.2261 6.30469C28.0794 7.22469 27.8794 8.49802 27.6261 10.1247H27.9261C28.2728 8.89802 28.5594 7.89802 28.7861 7.12469C29.0128 6.33802 29.1928 5.70469 29.3261 5.22469C29.4728 4.73135 29.6061 4.25802 29.7261 3.80469C29.8594 3.35135 29.9794 2.93135 30.0861 2.54469C30.2061 2.15802 30.2994 1.83135 30.3661 1.56469H30.5461C30.7861 1.56469 31.0261 1.55135 31.2661 1.52469C31.5194 1.49802 31.7528 1.47135 31.9661 1.44469C32.1928 1.40469 32.4261 1.35802 32.6661 1.30469C32.6394 1.42469 32.6061 1.67135 32.5661 2.04469C32.5394 2.41802 32.4994 2.87135 32.4461 3.40469C32.3928 3.92469 32.3394 4.50469 32.2861 5.14469C32.2328 5.77135 32.1794 6.39135 32.1261 7.00469C32.0728 7.60469 32.0194 8.17802 31.9661 8.72469C31.9261 9.27135 31.8861 9.73802 31.8461 10.1247H32.2061L34.1061 1.52469C34.5594 1.45802 35.0061 1.39802 35.4461 1.34469C35.8328 1.29135 36.2328 1.23802 36.6461 1.18469C37.0594 1.13135 37.4261 1.07135 37.7461 1.00469C37.5461 1.56469 37.3461 2.19135 37.1461 2.88469C36.9461 3.56469 36.7394 4.28469 36.5261 5.04469C36.3128 5.80469 36.1061 6.57135 35.9061 7.34469C35.7194 8.11802 35.5328 8.86469 35.3461 9.58469C34.9194 11.2914 34.5061 13.0447 34.1061 14.8447L29.5861 15.6047L30.4661 7.88469H30.2261L28.2461 15.1447L24.0861 15.8847ZM38.6778 15.4047C38.5578 15.4047 38.3178 15.4247 37.9578 15.4647C37.6112 15.4914 37.2512 15.5314 36.8778 15.5847C36.5045 15.6247 36.1645 15.6647 35.8578 15.7047C35.5645 15.7447 35.4045 15.7714 35.3778 15.7847C35.5112 15.2114 35.6445 14.578 35.7778 13.8847C35.9245 13.178 36.0712 12.4447 36.2178 11.6847C36.3645 10.9114 36.5045 10.1314 36.6378 9.34469C36.7712 8.55802 36.8978 7.79802 37.0178 7.06469C37.2978 5.35802 37.5778 3.60469 37.8578 1.80469L40.9778 1.30469C40.6712 3.09135 40.3712 4.84469 40.0778 6.56469C39.9578 7.29802 39.8312 8.05802 39.6978 8.84469C39.5778 9.63135 39.4512 10.4114 39.3178 11.1847C39.1978 11.958 39.0845 12.7114 38.9778 13.4447C38.8712 14.1647 38.7712 14.818 38.6778 15.4047ZM41.1208 15.8247C41.4275 14.358 41.7208 12.9114 42.0008 11.4847C42.1208 10.8847 42.2408 10.258 42.3608 9.60469C42.4808 8.95135 42.5941 8.31135 42.7008 7.68469C42.8208 7.04469 42.9208 6.43135 43.0008 5.84469C43.0941 5.24469 43.1741 4.69802 43.2408 4.20469C42.9341 4.16469 42.6208 4.15135 42.3008 4.16469C41.9941 4.17802 41.6875 4.13802 41.3808 4.04469C41.3941 3.83135 41.4008 3.58469 41.4008 3.30469C41.4008 3.02469 41.4075 2.74469 41.4208 2.46469C41.4341 2.15802 41.4475 1.83135 41.4608 1.48469C41.8075 1.51135 42.1541 1.53135 42.5008 1.54469C42.8475 1.55802 43.1941 1.56469 43.5408 1.56469C44.2208 1.56469 44.8741 1.55135 45.5008 1.52469C46.1408 1.48469 46.7275 1.44469 47.2608 1.40469C47.8075 1.35135 48.3408 1.29135 48.8608 1.22469L48.6408 2.30469C48.5741 2.61135 48.5075 2.92469 48.4408 3.24469C48.3875 3.56469 48.3341 3.83802 48.2808 4.06469C47.9875 4.14469 47.6875 4.20469 47.3808 4.24469C47.0875 4.27135 46.7941 4.31135 46.5008 4.36469C46.4075 4.81802 46.3075 5.32469 46.2008 5.88469C46.0941 6.43135 45.9875 7.00469 45.8808 7.60469C45.7875 8.19135 45.6941 8.79135 45.6008 9.40469C45.5075 10.018 45.4141 10.6047 45.3208 11.1647C45.1075 12.4847 44.9075 13.8514 44.7208 15.2647L41.1208 15.8247ZM46.7269 15.8447C47.1002 13.978 47.4602 12.158 47.8069 10.3847C47.9402 9.62469 48.0802 8.83802 48.2269 8.02469C48.3736 7.19802 48.5069 6.38469 48.6269 5.58469C48.7602 4.78469 48.8802 4.01135 48.9869 3.26469C49.1069 2.50469 49.2002 1.81802 49.2669 1.20469C49.5736 1.21802 49.8536 1.23802 50.1069 1.26469C50.3736 1.27802 50.6336 1.29135 50.8869 1.30469C51.1402 1.31802 51.3936 1.33135 51.6469 1.34469C51.9136 1.34469 52.2002 1.34469 52.5069 1.34469C52.2802 2.29135 52.0536 3.23802 51.8269 4.18469C51.6136 5.13135 51.4136 6.08469 51.2269 7.04469L53.2069 6.82469C53.3936 5.87802 53.5602 4.96469 53.7069 4.08469C53.8536 3.19135 54.0469 2.27135 54.2869 1.32469C54.5936 1.27135 54.9336 1.23135 55.3069 1.20469C55.6802 1.16469 56.0269 1.13135 56.3469 1.10469C56.6669 1.07802 56.9336 1.05802 57.1469 1.04469C57.3736 1.01802 57.4869 1.00469 57.4869 1.00469C57.3002 1.60469 57.1202 2.26469 56.9469 2.98469C56.7869 3.69135 56.6269 4.43135 56.4669 5.20469C56.3069 5.96469 56.1536 6.73802 56.0069 7.52469C55.8602 8.31135 55.7269 9.05802 55.6069 9.76469C55.3136 11.458 55.0402 13.1914 54.7869 14.9647L51.6669 15.3247C51.8402 14.5247 51.9936 13.7447 52.1269 12.9847C52.2602 12.3447 52.3936 11.678 52.5269 10.9847C52.6736 10.2914 52.7869 9.69802 52.8669 9.20469L50.9269 9.38469C50.8336 9.89135 50.7202 10.478 50.5869 11.1447C50.4669 11.8114 50.3536 12.4447 50.2469 13.0447C50.1002 13.7647 49.9536 14.4847 49.8069 15.2047L46.7269 15.8447ZM56.935 15.5047L57.855 11.4847C57.855 10.9114 57.8417 10.2914 57.815 9.62469C57.8017 8.94469 57.775 8.26469 57.735 7.58469C57.695 6.90469 57.655 6.25135 57.615 5.62469C57.575 4.98469 57.5417 4.42469 57.515 3.94469C57.4884 3.45135 57.4617 3.05802 57.435 2.76469C57.4084 2.47135 57.395 2.32469 57.395 2.32469L60.655 1.08469V3.52469C60.655 3.85802 60.655 4.19802 60.655 4.54469C60.655 4.89135 60.6484 5.23135 60.635 5.56469C60.635 5.89802 60.635 6.21135 60.635 6.50469C60.635 6.79802 60.635 7.04469 60.635 7.24469C60.8084 6.79135 61.015 6.23135 61.255 5.56469C61.5084 4.89802 61.7417 4.25135 61.955 3.62469C62.2084 2.89135 62.4684 2.11802 62.735 1.30469L65.835 2.00469C65.2617 3.15135 64.7017 4.29135 64.155 5.42469C63.9284 5.91802 63.6884 6.43135 63.435 6.96469C63.1817 7.48469 62.9284 8.01135 62.675 8.54469C62.4217 9.06469 62.175 9.57135 61.935 10.0647C61.695 10.558 61.475 11.018 61.275 11.4447C61.2084 11.7914 61.1217 12.1714 61.015 12.5847C60.9217 12.998 60.8284 13.3914 60.735 13.7647C60.615 14.2047 60.4884 14.6447 60.355 15.0847L56.935 15.5047ZM74.2708 4.98469C74.2708 6.07802 74.1508 7.11135 73.9108 8.08469C73.6841 9.04469 73.3775 9.93135 72.9908 10.7447C72.6041 11.5447 72.1508 12.2647 71.6308 12.9047C71.1241 13.5314 70.5908 14.0714 70.0308 14.5247C69.4708 14.9647 68.9041 15.3047 68.3308 15.5447C67.7575 15.7714 67.2108 15.8847 66.6908 15.8847C66.2508 15.8847 65.8508 15.8047 65.4908 15.6447C65.1308 15.4714 64.8175 15.2247 64.5508 14.9047C64.2841 14.5714 64.0708 14.1514 63.9108 13.6447C63.7641 13.1247 63.6908 12.5047 63.6908 11.7847C63.6908 11.038 63.7841 10.2514 63.9708 9.42469C64.1575 8.59802 64.4108 7.77802 64.7308 6.96469C65.0508 6.15135 65.4441 5.37802 65.9108 4.64469C66.3775 3.91135 66.8908 3.26469 67.4508 2.70469C68.0108 2.13135 68.6108 1.67802 69.2508 1.34469C69.8908 1.01135 70.5575 0.844687 71.2508 0.844687C71.8508 0.844687 72.3441 0.971354 72.7308 1.22469C73.1308 1.46469 73.4375 1.78469 73.6508 2.18469C73.8775 2.57135 74.0375 3.01135 74.1308 3.50469C74.2241 3.99802 74.2708 4.49135 74.2708 4.98469ZM66.6708 11.2647C66.6708 11.4114 66.6975 11.5647 66.7508 11.7247C66.8041 11.8847 66.8775 12.0247 66.9708 12.1447C67.0641 12.2647 67.1775 12.3714 67.3108 12.4647C67.4575 12.5447 67.6108 12.5847 67.7708 12.5847C68.3708 12.5847 68.9041 12.378 69.3708 11.9647C69.8375 11.5514 70.2241 11.0447 70.5308 10.4447C70.8375 9.84469 71.0708 9.20469 71.2308 8.52469C71.4041 7.84469 71.4908 7.22469 71.4908 6.66469C71.4908 6.50469 71.4775 6.33135 71.4508 6.14469C71.4375 5.95802 71.3975 5.78469 71.3308 5.62469C71.2775 5.46469 71.1841 5.33135 71.0508 5.22469C70.9308 5.10469 70.7641 5.04469 70.5508 5.04469C70.1241 5.04469 69.7308 5.15135 69.3708 5.36469C69.0108 5.57802 68.6841 5.86469 68.3908 6.22469C68.1108 6.57135 67.8641 6.97135 67.6508 7.42469C67.4375 7.86469 67.2508 8.31802 67.0908 8.78469C66.9441 9.23802 66.8375 9.68469 66.7708 10.1247C66.7041 10.5647 66.6708 10.9447 66.6708 11.2647ZM81.2541 11.9047C81.0674 12.6647 80.8007 13.3114 80.4541 13.8447C80.1207 14.378 79.7207 14.818 79.2541 15.1647C78.8007 15.5114 78.3141 15.7647 77.7941 15.9247C77.2741 16.0847 76.7541 16.1647 76.2341 16.1647C75.9274 16.1647 75.6141 16.1114 75.2941 16.0047C74.9741 15.9114 74.6874 15.7647 74.4341 15.5647C74.1807 15.3647 73.9674 15.1114 73.7941 14.8047C73.6341 14.498 73.5541 14.138 73.5541 13.7247C73.5541 13.6714 73.5541 13.618 73.5541 13.5647C73.5541 13.5114 73.5607 13.458 73.5741 13.4047C73.6274 12.858 73.7141 12.198 73.8341 11.4247C73.9541 10.6514 74.0807 9.84469 74.2141 9.00469C74.3474 8.16469 74.4941 7.32469 74.6541 6.48469C74.8141 5.63135 74.9541 4.85802 75.0741 4.16469C75.2074 3.47135 75.3207 2.89802 75.4141 2.44469C75.5074 1.97802 75.5674 1.69135 75.5941 1.58469C75.8741 1.55802 76.2074 1.52469 76.5941 1.48469C76.9807 1.44469 77.3407 1.41135 77.6741 1.38469C78.0874 1.34469 78.4941 1.30469 78.8941 1.26469C78.5474 2.87802 78.2407 4.33802 77.9741 5.64469C77.8541 6.20469 77.7341 6.76469 77.6141 7.32469C77.5074 7.88469 77.4007 8.39802 77.2941 8.86469C77.2007 9.33135 77.1141 9.73802 77.0341 10.0847C76.9674 10.418 76.9074 10.6914 76.8541 10.9047C76.8141 11.118 76.7607 11.3914 76.6941 11.7247C76.6407 12.0447 76.6141 12.338 76.6141 12.6047C76.6141 12.818 76.6674 12.998 76.7741 13.1447C76.8807 13.278 77.0141 13.3447 77.1741 13.3447C77.4007 13.3447 77.5874 13.258 77.7341 13.0847C77.8807 12.898 78.0007 12.678 78.0941 12.4247C78.2007 12.1714 78.2741 11.918 78.3141 11.6647C78.3674 11.398 78.4141 11.1914 78.4541 11.0447C78.5341 10.658 78.6207 10.2314 78.7141 9.76469C78.8207 9.28469 78.9207 8.79135 79.0141 8.28469C79.1207 7.76469 79.2207 7.23802 79.3141 6.70469C79.4207 6.17135 79.5207 5.65135 79.6141 5.14469C79.8407 3.97135 80.0607 2.75802 80.2741 1.50469L83.3141 1.30469C83.3141 1.30469 83.2807 1.47802 83.2141 1.82469C83.1474 2.17135 83.0607 2.63135 82.9541 3.20469C82.8474 3.77802 82.7274 4.43135 82.5941 5.16469C82.4741 5.89802 82.3341 6.66469 82.1741 7.46469C82.0141 8.25135 81.8541 9.03135 81.6941 9.80469C81.5474 10.5647 81.4007 11.2647 81.2541 11.9047ZM81.393 15.8247C81.753 14.0514 82.0997 12.318 82.433 10.6247C82.553 9.90469 82.6863 9.15802 82.833 8.38469C82.9797 7.59802 83.113 6.82469 83.233 6.06469C83.3663 5.29135 83.4863 4.55135 83.593 3.84469C83.713 3.12469 83.8063 2.47135 83.873 1.88469C84.633 1.64469 85.453 1.47135 86.333 1.36469C87.213 1.24469 88.0863 1.18469 88.953 1.18469C89.473 1.18469 89.8997 1.24469 90.233 1.36469C90.5797 1.48469 90.8463 1.65802 91.033 1.88469C91.233 2.09802 91.373 2.35135 91.453 2.64469C91.533 2.93802 91.573 3.26469 91.573 3.62469C91.573 4.15802 91.4797 4.68469 91.293 5.20469C91.1063 5.71135 90.853 6.19802 90.533 6.66469C90.2263 7.11802 89.8663 7.53802 89.453 7.92469C89.053 8.29802 88.6197 8.60469 88.153 8.84469C88.393 9.37802 88.6463 9.96469 88.913 10.6047C89.193 11.2314 89.453 11.8314 89.693 12.4047C89.9597 13.0714 90.233 13.738 90.513 14.4047L87.413 15.4847C87.1463 14.6314 86.9063 13.8314 86.693 13.0847C86.5997 12.778 86.5063 12.4647 86.413 12.1447C86.3197 11.8114 86.233 11.498 86.153 11.2047C86.073 10.9114 86.0063 10.6514 85.953 10.4247C85.8997 10.1847 85.8663 9.99135 85.853 9.84469L85.593 9.92469C85.513 10.3514 85.413 10.8514 85.293 11.4247C85.1863 11.998 85.0863 12.5514 84.993 13.0847C84.873 13.7114 84.753 14.3447 84.633 14.9847L81.393 15.8247ZM86.093 7.14469C86.3463 7.11802 86.653 7.01135 87.013 6.82469C87.3863 6.63802 87.7397 6.41802 88.073 6.16469C88.4063 5.89802 88.693 5.62469 88.933 5.34469C89.173 5.06469 89.293 4.81802 89.293 4.60469C89.293 4.45802 89.2463 4.34469 89.153 4.26469C89.0597 4.17135 88.9263 4.10469 88.753 4.06469C88.593 4.01135 88.413 3.97802 88.213 3.96469C88.013 3.95135 87.8063 3.94469 87.593 3.94469C87.4463 3.94469 87.293 3.95135 87.133 3.96469C86.9863 3.96469 86.853 3.96469 86.733 3.96469L86.093 7.14469ZM92.6597 15.3247C92.2864 15.3914 91.8797 15.4714 91.4397 15.5647C90.9997 15.658 90.613 15.7447 90.2797 15.8247C90.4397 15.2514 90.593 14.6114 90.7397 13.9047C90.8997 13.1847 91.053 12.4314 91.1997 11.6447C91.3597 10.858 91.5064 10.0647 91.6397 9.26469C91.7864 8.45135 91.9264 7.67135 92.0597 6.92469C92.3397 5.15135 92.6197 3.31802 92.8997 1.42469L99.5997 1.08469L99.0197 3.54469H95.8797L95.2597 7.10469C95.673 7.09135 96.0664 7.08469 96.4397 7.08469C96.7464 7.08469 97.0597 7.08469 97.3797 7.08469C97.6997 7.08469 97.9464 7.07802 98.1197 7.06469C98.0797 7.43802 98.0264 7.80469 97.9597 8.16469C97.9064 8.52469 97.853 8.88469 97.7997 9.24469C97.6264 9.24469 97.3797 9.24469 97.0597 9.24469C96.7397 9.23135 96.4064 9.21802 96.0597 9.20469C95.7264 9.19135 95.3464 9.17802 94.9197 9.16469L93.9997 15.0647C93.5464 15.1447 93.0997 15.2314 92.6597 15.3247ZM97.0961 15.8247C97.4561 14.0514 97.8028 12.318 98.1361 10.6247C98.2561 9.90469 98.3894 9.15802 98.5361 8.38469C98.6828 7.59802 98.8161 6.82469 98.9361 6.06469C99.0694 5.29135 99.1894 4.55135 99.2961 3.84469C99.4161 3.12469 99.5094 2.47135 99.5761 1.88469C100.336 1.64469 101.156 1.47135 102.036 1.36469C102.916 1.24469 103.789 1.18469 104.656 1.18469C105.176 1.18469 105.603 1.24469 105.936 1.36469C106.283 1.48469 106.549 1.65802 106.736 1.88469C106.936 2.09802 107.076 2.35135 107.156 2.64469C107.236 2.93802 107.276 3.26469 107.276 3.62469C107.276 4.15802 107.183 4.68469 106.996 5.20469C106.809 5.71135 106.556 6.19802 106.236 6.66469C105.929 7.11802 105.569 7.53802 105.156 7.92469C104.756 8.29802 104.323 8.60469 103.856 8.84469C104.096 9.37802 104.349 9.96469 104.616 10.6047C104.896 11.2314 105.156 11.8314 105.396 12.4047C105.663 13.0714 105.936 13.738 106.216 14.4047L103.116 15.4847C102.849 14.6314 102.609 13.8314 102.396 13.0847C102.303 12.778 102.209 12.4647 102.116 12.1447C102.023 11.8114 101.936 11.498 101.856 11.2047C101.776 10.9114 101.709 10.6514 101.656 10.4247C101.603 10.1847 101.569 9.99135 101.556 9.84469L101.296 9.92469C101.216 10.3514 101.116 10.8514 100.996 11.4247C100.889 11.998 100.789 12.5514 100.696 13.0847C100.576 13.7114 100.456 14.3447 100.336 14.9847L97.0961 15.8247ZM101.796 7.14469C102.049 7.11802 102.356 7.01135 102.716 6.82469C103.089 6.63802 103.443 6.41802 103.776 6.16469C104.109 5.89802 104.396 5.62469 104.636 5.34469C104.876 5.06469 104.996 4.81802 104.996 4.60469C104.996 4.45802 104.949 4.34469 104.856 4.26469C104.763 4.17135 104.629 4.10469 104.456 4.06469C104.296 4.01135 104.116 3.97802 103.916 3.96469C103.716 3.95135 103.509 3.94469 103.296 3.94469C103.149 3.94469 102.996 3.95135 102.836 3.96469C102.689 3.96469 102.556 3.96469 102.436 3.96469L101.796 7.14469ZM109.303 15.4047C109.183 15.4047 108.943 15.4247 108.583 15.4647C108.236 15.4914 107.876 15.5314 107.503 15.5847C107.129 15.6247 106.789 15.6647 106.483 15.7047C106.189 15.7447 106.029 15.7714 106.003 15.7847C106.136 15.2114 106.269 14.578 106.403 13.8847C106.549 13.178 106.696 12.4447 106.843 11.6847C106.989 10.9114 107.129 10.1314 107.263 9.34469C107.396 8.55802 107.523 7.79802 107.643 7.06469C107.923 5.35802 108.203 3.60469 108.483 1.80469L111.603 1.30469C111.296 3.09135 110.996 4.84469 110.703 6.56469C110.583 7.29802 110.456 8.05802 110.323 8.84469C110.203 9.63135 110.076 10.4114 109.943 11.1847C109.823 11.958 109.709 12.7114 109.603 13.4447C109.496 14.1647 109.396 14.818 109.303 15.4047ZM110.106 15.8247L112.726 1.60469L119.046 1.06469C118.952 1.35802 118.872 1.65802 118.806 1.96469C118.739 2.21802 118.672 2.48469 118.606 2.76469C118.552 3.03135 118.506 3.27135 118.466 3.48469C118.332 3.49802 118.139 3.51135 117.886 3.52469C117.646 3.52469 117.386 3.53135 117.106 3.54469C116.826 3.54469 116.539 3.54469 116.246 3.54469C115.966 3.54469 115.719 3.54469 115.506 3.54469L114.806 7.12469C115.219 7.09802 115.606 7.07802 115.966 7.06469C116.259 7.05135 116.559 7.04469 116.866 7.04469C117.172 7.04469 117.399 7.03802 117.546 7.02469C117.492 7.39802 117.439 7.76469 117.386 8.12469C117.346 8.48469 117.292 8.85135 117.226 9.22469C117.092 9.23802 116.872 9.25135 116.566 9.26469C116.272 9.26469 115.972 9.27135 115.666 9.28469C115.319 9.29802 114.939 9.31135 114.526 9.32469L113.846 13.0047L116.766 12.5447L116.566 14.8247L110.106 15.8247ZM116.862 15.9047C117.262 13.9847 117.642 12.1247 118.002 10.3247C118.136 9.55135 118.276 8.75135 118.422 7.92469C118.582 7.09802 118.729 6.28469 118.862 5.48469C118.996 4.67135 119.116 3.89802 119.222 3.16469C119.329 2.41802 119.409 1.74469 119.462 1.14469C119.636 1.15802 119.782 1.16469 119.902 1.16469C120.022 1.16469 120.162 1.16469 120.322 1.16469C120.509 1.16469 120.736 1.16469 121.002 1.16469C121.269 1.15135 121.536 1.13802 121.802 1.12469C122.069 1.11135 122.356 1.09802 122.662 1.08469C122.849 2.01802 123.016 2.91802 123.162 3.78469C123.309 4.54469 123.456 5.32469 123.602 6.12469C123.762 6.92469 123.902 7.60469 124.022 8.16469C124.076 7.89802 124.136 7.59135 124.202 7.24469C124.269 6.88469 124.342 6.51135 124.422 6.12469C124.502 5.73802 124.576 5.35135 124.642 4.96469C124.722 4.56469 124.802 4.17135 124.882 3.78469C125.069 2.91802 125.262 2.02469 125.462 1.10469L127.902 0.804686C127.449 2.84469 127.049 4.77802 126.702 6.60469C126.542 7.39135 126.382 8.19135 126.222 9.00469C126.076 9.80469 125.936 10.578 125.802 11.3247C125.669 12.058 125.556 12.7447 125.462 13.3847C125.369 14.0114 125.296 14.538 125.242 14.9647C125.202 14.9647 125.042 14.998 124.762 15.0647C124.496 15.118 124.182 15.1847 123.822 15.2647C123.476 15.3447 123.122 15.4247 122.762 15.5047C122.416 15.5847 122.156 15.658 121.982 15.7247C121.902 14.658 121.816 13.6447 121.722 12.6847C121.682 12.2714 121.636 11.8514 121.582 11.4247C121.542 10.9847 121.496 10.5647 121.442 10.1647C121.389 9.76469 121.336 9.39135 121.282 9.04469C121.229 8.69802 121.176 8.39802 121.122 8.14469C121.082 8.39802 121.029 8.69135 120.962 9.02469C120.896 9.35802 120.829 9.71135 120.762 10.0847C120.696 10.458 120.629 10.8514 120.562 11.2647C120.496 11.6647 120.422 12.0514 120.342 12.4247C120.169 13.318 119.982 14.2514 119.782 15.2247L116.862 15.9047ZM135.985 5.58469C135.985 6.27802 135.885 7.01802 135.685 7.80469C135.485 8.57802 135.205 9.35135 134.845 10.1247C134.485 10.8847 134.039 11.618 133.505 12.3247C132.985 13.018 132.392 13.6314 131.725 14.1647C131.059 14.6847 130.325 15.1047 129.525 15.4247C128.739 15.7447 127.899 15.9047 127.005 15.9047C126.819 15.9047 126.632 15.8914 126.445 15.8647C126.259 15.8514 126.072 15.8314 125.885 15.8047C126.245 13.9647 126.599 12.1714 126.945 10.4247C127.079 9.69135 127.219 8.93135 127.365 8.14469C127.512 7.34469 127.652 6.55802 127.785 5.78469C127.919 5.01135 128.045 4.27135 128.165 3.56469C128.299 2.85802 128.405 2.21802 128.485 1.64469C129.059 1.53802 129.639 1.43802 130.225 1.34469C130.812 1.25135 131.412 1.20469 132.025 1.20469C132.745 1.20469 133.352 1.31802 133.845 1.54469C134.352 1.77135 134.759 2.08469 135.065 2.48469C135.385 2.88469 135.619 3.35135 135.765 3.88469C135.912 4.41802 135.985 4.98469 135.985 5.58469ZM131.265 4.02469C131.119 4.81135 130.965 5.56469 130.805 6.28469C130.645 7.00469 130.485 7.73135 130.325 8.46469C130.165 9.19802 130.005 9.96469 129.845 10.7647C129.685 11.5647 129.532 12.438 129.385 13.3847C129.705 13.1714 130.012 12.8847 130.305 12.5247C130.612 12.1514 130.899 11.7247 131.165 11.2447C131.432 10.7647 131.672 10.258 131.885 9.72469C132.112 9.19135 132.305 8.67135 132.465 8.16469C132.625 7.65802 132.745 7.18469 132.825 6.74469C132.919 6.30469 132.965 5.92469 132.965 5.60469C132.965 5.11135 132.825 4.72469 132.545 4.44469C132.279 4.16469 131.852 4.02469 131.265 4.02469ZM143.493 10.8647C143.493 11.6114 143.347 12.2914 143.053 12.9047C142.773 13.5047 142.387 14.0247 141.893 14.4647C141.413 14.9047 140.84 15.2447 140.173 15.4847C139.52 15.7247 138.813 15.8447 138.053 15.8447C137.52 15.8447 136.987 15.7047 136.453 15.4247C135.92 15.1314 135.407 14.6714 134.913 14.0447L136.393 11.1447C136.487 11.318 136.627 11.498 136.813 11.6847C137 11.858 137.207 12.0114 137.433 12.1447C137.673 12.278 137.907 12.3914 138.133 12.4847C138.373 12.5647 138.587 12.6047 138.773 12.6047C138.933 12.6047 139.1 12.578 139.273 12.5247C139.447 12.4714 139.607 12.3914 139.753 12.2847C139.9 12.178 140.013 12.058 140.093 11.9247C140.187 11.778 140.233 11.6114 140.233 11.4247C140.233 11.1047 140.127 10.8114 139.913 10.5447C139.713 10.2647 139.46 10.0047 139.153 9.76469C138.847 9.51135 138.513 9.25802 138.153 9.00469C137.793 8.75135 137.46 8.48469 137.153 8.20469C136.86 7.92469 136.607 7.61135 136.393 7.26469C136.18 6.91802 136.073 6.53135 136.073 6.10469C136.073 5.41135 136.28 4.76469 136.693 4.16469C137.107 3.56469 137.62 3.05135 138.233 2.62469C138.86 2.18469 139.54 1.83802 140.273 1.58469C141.007 1.33135 141.7 1.20469 142.353 1.20469C142.713 1.20469 143.053 1.25135 143.373 1.34469C143.693 1.42469 143.967 1.56469 144.193 1.76469C144.433 1.95135 144.62 2.19135 144.753 2.48469C144.9 2.77802 144.973 3.14469 144.973 3.58469C144.973 3.77135 144.953 3.95802 144.913 4.14469C144.887 4.33135 144.86 4.53135 144.833 4.74469L141.933 5.58469C141.96 5.47802 141.98 5.37135 141.993 5.26469C142.02 5.15802 142.033 5.05135 142.033 4.94469C142.033 4.54469 141.96 4.25802 141.813 4.08469C141.68 3.89802 141.5 3.80469 141.273 3.80469C141.167 3.80469 141.033 3.84469 140.873 3.92469C140.727 4.00469 140.573 4.11135 140.413 4.24469C140.267 4.36469 140.14 4.51135 140.033 4.68469C139.927 4.85802 139.873 5.04469 139.873 5.24469C139.873 5.56469 139.96 5.83135 140.133 6.04469C140.32 6.25802 140.547 6.45802 140.813 6.64469C141.08 6.83135 141.367 7.02469 141.673 7.22469C141.993 7.41135 142.287 7.65802 142.553 7.96469C142.82 8.27135 143.04 8.65802 143.213 9.12469C143.4 9.57802 143.493 10.158 143.493 10.8647Z" fill="white"/>
</svg>
