<svg width="218" height="24" viewBox="0 0 218 24" fill="none" xmlns="http://www.w3.org/2000/svg">
<path d="M14.4477 15.6384C14.4477 16.4584 14.2777 17.2184 13.9377 17.9184C13.5977 18.6184 13.1377 19.2584 12.5577 19.8384C11.9777 20.3984 11.2977 20.8984 10.5177 21.3384C9.7577 21.7584 8.9477 22.1184 8.0877 22.4184C7.2477 22.6984 6.3777 22.9184 5.4777 23.0784C4.5977 23.2184 3.7477 23.2884 2.9277 23.2884C2.1877 23.2884 1.4977 23.2284 0.857695 23.1084C1.8177 19.6084 2.5777 16.0884 3.1377 12.5484C3.7177 8.9884 4.2677 5.4084 4.7877 1.8084C5.8277 1.58839 6.9077 1.39839 8.0277 1.2384C9.1477 1.0584 10.3077 0.968396 11.5077 0.968396C12.0077 0.968396 12.5377 1.0284 13.0977 1.1484C13.6577 1.26839 14.1677 1.48839 14.6277 1.8084C15.0877 2.1284 15.4677 2.5484 15.7677 3.0684C16.0877 3.58839 16.2477 4.24839 16.2477 5.0484C16.2477 5.80839 16.1177 6.51839 15.8577 7.17839C15.6177 7.8384 15.2977 8.4384 14.8977 8.9784C14.5177 9.5184 14.0777 9.9884 13.5777 10.3884C13.0777 10.7684 12.5677 11.0584 12.0477 11.2584C12.3077 11.3984 12.5777 11.5984 12.8577 11.8584C13.1377 12.1184 13.3977 12.4284 13.6377 12.7884C13.8777 13.1284 14.0677 13.5384 14.2077 14.0184C14.3677 14.4984 14.4477 15.0384 14.4477 15.6384ZM7.5777 12.5184C7.4977 12.9984 7.4177 13.4284 7.3377 13.8084C7.2777 14.1684 7.2177 14.5184 7.1577 14.8584C7.0977 15.1984 7.0277 15.5584 6.9477 15.9384C6.8877 16.2984 6.8177 16.7284 6.7377 17.2284C7.1177 17.1884 7.5477 17.1184 8.0277 17.0184C8.5077 16.9184 8.9677 16.7684 9.4077 16.5684C9.8477 16.3484 10.2177 16.0684 10.5177 15.7284C10.8177 15.3684 10.9677 14.9384 10.9677 14.4384C10.9677 14.0784 10.8677 13.7784 10.6677 13.5384C10.4877 13.2984 10.2477 13.0984 9.9477 12.9384C9.6677 12.7784 9.3577 12.6684 9.0177 12.6084C8.6777 12.5284 8.3577 12.4884 8.0577 12.4884C7.9577 12.4884 7.8677 12.4884 7.7877 12.4884C7.7277 12.4884 7.6577 12.4984 7.5777 12.5184ZM8.9277 5.2584C8.8877 5.4784 8.8377 5.7384 8.7777 6.03839C8.7377 6.33839 8.6877 6.65839 8.6277 6.99839C8.5677 7.3184 8.4977 7.6384 8.4177 7.9584C8.3577 8.2784 8.3077 8.5584 8.2677 8.7984C8.7077 8.7184 9.1477 8.6084 9.5877 8.4684C10.0277 8.3284 10.4177 8.1784 10.7577 8.0184C11.1177 7.8384 11.3977 7.6484 11.5977 7.44839C11.8177 7.24839 11.9277 7.0284 11.9277 6.7884C11.9277 6.48839 11.8377 6.24839 11.6577 6.06839C11.4777 5.86839 11.2377 5.70839 10.9377 5.5884C10.6577 5.4684 10.3577 5.3884 10.0377 5.34839C9.7377 5.2884 9.4677 5.2584 9.2277 5.2584H8.9277ZM13.9597 23.1984L17.8897 1.86839L27.3697 1.05839C27.2297 1.49839 27.1097 1.9484 27.0097 2.4084C26.9097 2.78839 26.8097 3.1884 26.7097 3.6084C26.6297 4.0084 26.5597 4.36839 26.4997 4.68839C26.2997 4.7084 26.0097 4.7284 25.6297 4.7484C25.2697 4.7484 24.8797 4.7584 24.4597 4.77839C24.0397 4.77839 23.6097 4.77839 23.1697 4.77839C22.7497 4.77839 22.3797 4.77839 22.0597 4.77839L21.0097 10.1484C21.6297 10.1084 22.2097 10.0784 22.7497 10.0584C23.1897 10.0384 23.6397 10.0284 24.0997 10.0284C24.5597 10.0284 24.8997 10.0184 25.1197 9.9984C25.0397 10.5584 24.9597 11.1084 24.8797 11.6484C24.8197 12.1884 24.7397 12.7384 24.6397 13.2984C24.4397 13.3184 24.1097 13.3384 23.6497 13.3584C23.2097 13.3584 22.7597 13.3684 22.2997 13.3884C21.7797 13.4084 21.2097 13.4284 20.5897 13.4484L19.5697 18.9684L23.9497 18.2784L23.6497 21.6984L13.9597 23.1984ZM26.6443 23.1984C27.1043 20.9984 27.5443 18.8284 27.9643 16.6884C28.1443 15.7884 28.3243 14.8484 28.5043 13.8684C28.6843 12.8884 28.8543 11.9284 29.0143 10.9884C29.1943 10.0284 29.3443 9.1084 29.4643 8.2284C29.6043 7.32839 29.7243 6.50839 29.8243 5.76839C29.3643 5.7084 28.8943 5.6884 28.4143 5.7084C27.9543 5.7284 27.4943 5.6684 27.0343 5.5284C27.0543 5.2084 27.0643 4.8384 27.0643 4.4184C27.0643 3.9984 27.0743 3.57839 27.0943 3.15839C27.1143 2.69839 27.1343 2.20839 27.1543 1.6884C27.6743 1.72839 28.1943 1.75839 28.7143 1.77839C29.2343 1.7984 29.7543 1.8084 30.2743 1.8084C31.2943 1.8084 32.2743 1.7884 33.2143 1.74839C34.1743 1.6884 35.0543 1.6284 35.8543 1.5684C36.6743 1.48839 37.4743 1.39839 38.2543 1.2984L37.9243 2.9184C37.8243 3.3784 37.7243 3.8484 37.6243 4.3284C37.5443 4.8084 37.4643 5.2184 37.3843 5.5584C36.9443 5.6784 36.4943 5.7684 36.0343 5.8284C35.5943 5.8684 35.1543 5.9284 34.7143 6.0084C34.5743 6.68839 34.4243 7.44839 34.2643 8.2884C34.1043 9.1084 33.9443 9.9684 33.7843 10.8684C33.6443 11.7484 33.5043 12.6484 33.3643 13.5684C33.2243 14.4884 33.0843 15.3684 32.9443 16.2084C32.6243 18.1884 32.3243 20.2384 32.0443 22.3584L26.6443 23.1984ZM36.0435 23.2884L38.3235 1.9884C39.2635 1.9484 40.1435 1.8584 40.9635 1.71839C41.8035 1.55839 42.6335 1.44839 43.4535 1.3884C43.4535 1.4084 43.4235 1.6184 43.3635 2.01839C43.3035 2.39839 43.2235 2.90839 43.1235 3.54839C43.0235 4.1684 42.9135 4.8784 42.7935 5.6784C42.6735 6.4584 42.4935 7.5384 42.2535 8.9184C42.0335 10.2984 41.7335 12.2084 41.3535 14.6484H41.8035C42.3235 12.8084 42.7535 11.3084 43.0935 10.1484C43.4335 8.9684 43.7035 8.01839 43.9035 7.29839C44.1235 6.55839 44.3235 5.84839 44.5035 5.1684C44.7035 4.4884 44.8835 3.8584 45.0435 3.27839C45.2235 2.69839 45.3635 2.2084 45.4635 1.8084H45.7335C46.0935 1.8084 46.4535 1.7884 46.8135 1.74839C47.1935 1.7084 47.5435 1.6684 47.8635 1.62839C48.2035 1.5684 48.5535 1.4984 48.9135 1.4184C48.8735 1.5984 48.8235 1.9684 48.7635 2.5284C48.7235 3.0884 48.6635 3.7684 48.5835 4.5684C48.5035 5.3484 48.4235 6.21839 48.3435 7.17839C48.2635 8.11839 48.1835 9.0484 48.1035 9.9684C48.0235 10.8684 47.9435 11.7284 47.8635 12.5484C47.8035 13.3684 47.7435 14.0684 47.6835 14.6484H48.2235L51.0735 1.74839C51.7535 1.64839 52.4235 1.55839 53.0835 1.47839C53.6635 1.39839 54.2635 1.31839 54.8835 1.2384C55.5035 1.1584 56.0535 1.0684 56.5335 0.968396C56.2335 1.8084 55.9335 2.7484 55.6335 3.7884C55.3335 4.8084 55.0235 5.88839 54.7035 7.02839C54.3835 8.16839 54.0735 9.3184 53.7735 10.4784C53.4935 11.6384 53.2135 12.7584 52.9335 13.8384C52.2935 16.3984 51.6735 19.0284 51.0735 21.7284L44.2935 22.8684L45.6135 11.2884H45.2535L42.2835 22.1784L36.0435 23.2884ZM57.9311 22.5684C57.7511 22.5684 57.3911 22.5984 56.8511 22.6584C56.3311 22.6984 55.7911 22.7584 55.2311 22.8384C54.6711 22.8984 54.1611 22.9584 53.7011 23.0184C53.2611 23.0784 53.0211 23.1184 52.9811 23.1384C53.1811 22.2784 53.3811 21.3284 53.5811 20.2884C53.8011 19.2284 54.0211 18.1284 54.2411 16.9884C54.4611 15.8284 54.6711 14.6584 54.8711 13.4784C55.0711 12.2984 55.2611 11.1584 55.4411 10.0584C55.8611 7.4984 56.2811 4.8684 56.7011 2.16839L61.3811 1.4184C60.9211 4.0984 60.4711 6.7284 60.0311 9.3084C59.8511 10.4084 59.6611 11.5484 59.4611 12.7284C59.2811 13.9084 59.0911 15.0784 58.8911 16.2384C58.7111 17.3984 58.5411 18.5284 58.3811 19.6284C58.2211 20.7084 58.0711 21.6884 57.9311 22.5684ZM61.5955 23.1984C62.0555 20.9984 62.4955 18.8284 62.9155 16.6884C63.0955 15.7884 63.2755 14.8484 63.4555 13.8684C63.6355 12.8884 63.8055 11.9284 63.9655 10.9884C64.1455 10.0284 64.2955 9.1084 64.4155 8.2284C64.5555 7.32839 64.6755 6.50839 64.7755 5.76839C64.3155 5.7084 63.8455 5.6884 63.3655 5.7084C62.9055 5.7284 62.4455 5.6684 61.9855 5.5284C62.0055 5.2084 62.0155 4.8384 62.0155 4.4184C62.0155 3.9984 62.0255 3.57839 62.0455 3.15839C62.0655 2.69839 62.0855 2.20839 62.1055 1.6884C62.6255 1.72839 63.1455 1.75839 63.6655 1.77839C64.1855 1.7984 64.7055 1.8084 65.2255 1.8084C66.2455 1.8084 67.2255 1.7884 68.1655 1.74839C69.1255 1.6884 70.0055 1.6284 70.8055 1.5684C71.6255 1.48839 72.4255 1.39839 73.2055 1.2984L72.8755 2.9184C72.7755 3.3784 72.6755 3.8484 72.5755 4.3284C72.4955 4.8084 72.4155 5.2184 72.3355 5.5584C71.8955 5.6784 71.4455 5.7684 70.9855 5.8284C70.5455 5.8684 70.1055 5.9284 69.6655 6.0084C69.5255 6.68839 69.3755 7.44839 69.2155 8.2884C69.0555 9.1084 68.8955 9.9684 68.7355 10.8684C68.5955 11.7484 68.4555 12.6484 68.3155 13.5684C68.1755 14.4884 68.0355 15.3684 67.8955 16.2084C67.5755 18.1884 67.2755 20.2384 66.9955 22.3584L61.5955 23.1984ZM70.0046 23.2284C70.5646 20.4284 71.1046 17.6984 71.6246 15.0384C71.8246 13.8984 72.0346 12.7184 72.2546 11.4984C72.4746 10.2584 72.6746 9.03839 72.8546 7.83839C73.0546 6.63839 73.2346 5.47839 73.3946 4.35839C73.5746 3.2184 73.7146 2.1884 73.8146 1.2684C74.2746 1.2884 74.6946 1.31839 75.0746 1.35839C75.4746 1.3784 75.8646 1.3984 76.2446 1.4184C76.6246 1.4384 77.0046 1.45839 77.3846 1.47839C77.7846 1.47839 78.2146 1.47839 78.6746 1.47839C78.3346 2.8984 77.9946 4.3184 77.6546 5.7384C77.3346 7.15839 77.0346 8.58839 76.7546 10.0284L79.7246 9.6984C80.0046 8.27839 80.2546 6.90839 80.4746 5.5884C80.6946 4.24839 80.9846 2.86839 81.3446 1.44839C81.8046 1.36839 82.3146 1.30839 82.8746 1.2684C83.4346 1.2084 83.9546 1.1584 84.4346 1.1184C84.9146 1.07839 85.3146 1.04839 85.6346 1.02839C85.9746 0.988395 86.1446 0.968396 86.1446 0.968396C85.8646 1.86839 85.5946 2.85839 85.3347 3.9384C85.0946 4.9984 84.8546 6.1084 84.6146 7.2684C84.3746 8.4084 84.1446 9.5684 83.9246 10.7484C83.7046 11.9284 83.5046 13.0484 83.3246 14.1084C82.8846 16.6484 82.4746 19.2484 82.0946 21.9084L77.4146 22.4484C77.6746 21.2484 77.9046 20.0784 78.1046 18.9384C78.3046 17.9784 78.5046 16.9784 78.7046 15.9384C78.9246 14.8984 79.0946 14.0084 79.2146 13.2684L76.3046 13.5384C76.1646 14.2984 75.9946 15.1784 75.7946 16.1784C75.6146 17.1784 75.4446 18.1284 75.2846 19.0284C75.0646 20.1084 74.8446 21.1884 74.6246 22.2684L70.0046 23.2284ZM85.3168 22.7184L86.6968 16.6884C86.6968 15.8284 86.6768 14.8984 86.6368 13.8984C86.6168 12.8784 86.5768 11.8584 86.5168 10.8384C86.4568 9.8184 86.3968 8.8384 86.3368 7.8984C86.2768 6.9384 86.2268 6.09839 86.1868 5.37839C86.1468 4.63839 86.1068 4.04839 86.0668 3.6084C86.0268 3.1684 86.0068 2.9484 86.0068 2.9484L90.8968 1.08839V4.7484C90.8968 5.24839 90.8968 5.75839 90.8968 6.2784C90.8968 6.7984 90.8868 7.3084 90.8668 7.8084C90.8668 8.3084 90.8668 8.7784 90.8668 9.21839C90.8668 9.6584 90.8668 10.0284 90.8668 10.3284C91.1268 9.6484 91.4368 8.8084 91.7968 7.8084C92.1768 6.8084 92.5268 5.83839 92.8468 4.8984C93.2268 3.7984 93.6168 2.6384 94.0168 1.4184L98.6668 2.46839C97.8068 4.18839 96.9668 5.89839 96.1468 7.59839C95.8068 8.33839 95.4468 9.1084 95.0668 9.9084C94.6868 10.6884 94.3068 11.4784 93.9268 12.2784C93.5468 13.0584 93.1768 13.8184 92.8168 14.5584C92.4568 15.2984 92.1268 15.9884 91.8268 16.6284C91.7268 17.1484 91.5968 17.7184 91.4368 18.3384C91.2968 18.9584 91.1568 19.5484 91.0168 20.1084C90.8368 20.7684 90.6468 21.4284 90.4468 22.0884L85.3168 22.7184ZM111.321 6.9384C111.321 8.5784 111.141 10.1284 110.781 11.5884C110.441 13.0284 109.981 14.3584 109.401 15.5784C108.821 16.7784 108.141 17.8584 107.361 18.8184C106.601 19.7584 105.801 20.5684 104.961 21.2484C104.121 21.9084 103.271 22.4184 102.411 22.7784C101.551 23.1184 100.731 23.2884 99.9505 23.2884C99.2905 23.2884 98.6905 23.1684 98.1505 22.9284C97.6105 22.6684 97.1405 22.2984 96.7405 21.8184C96.3405 21.3184 96.0205 20.6884 95.7805 19.9284C95.5605 19.1484 95.4505 18.2184 95.4505 17.1384C95.4505 16.0184 95.5905 14.8384 95.8705 13.5984C96.1505 12.3584 96.5305 11.1284 97.0105 9.9084C97.4905 8.6884 98.0805 7.5284 98.7805 6.4284C99.4805 5.3284 100.251 4.35839 101.091 3.5184C101.931 2.6584 102.831 1.9784 103.791 1.47839C104.751 0.978395 105.751 0.728395 106.791 0.728395C107.691 0.728395 108.431 0.918395 109.011 1.2984C109.611 1.6584 110.071 2.13839 110.391 2.73839C110.731 3.3184 110.971 3.9784 111.111 4.7184C111.251 5.4584 111.321 6.1984 111.321 6.9384ZM99.9205 16.3584C99.9205 16.5784 99.9605 16.8084 100.041 17.0484C100.121 17.2884 100.231 17.4984 100.371 17.6784C100.511 17.8584 100.681 18.0184 100.881 18.1584C101.101 18.2784 101.331 18.3384 101.571 18.3384C102.471 18.3384 103.271 18.0284 103.971 17.4084C104.671 16.7884 105.251 16.0284 105.711 15.1284C106.171 14.2284 106.521 13.2684 106.761 12.2484C107.021 11.2284 107.151 10.2984 107.151 9.4584C107.151 9.2184 107.131 8.9584 107.091 8.6784C107.071 8.3984 107.011 8.1384 106.911 7.8984C106.831 7.6584 106.691 7.4584 106.491 7.29839C106.311 7.11839 106.061 7.02839 105.741 7.02839C105.101 7.02839 104.511 7.18839 103.971 7.5084C103.431 7.8284 102.941 8.25839 102.501 8.7984C102.081 9.3184 101.711 9.9184 101.391 10.5984C101.071 11.2584 100.791 11.9384 100.551 12.6384C100.331 13.3184 100.171 13.9884 100.071 14.6484C99.9705 15.3084 99.9205 15.8784 99.9205 16.3584ZM121.795 17.3184C121.515 18.4584 121.115 19.4284 120.595 20.2284C120.095 21.0284 119.495 21.6884 118.795 22.2084C118.115 22.7284 117.385 23.1084 116.605 23.3484C115.825 23.5884 115.045 23.7084 114.265 23.7084C113.805 23.7084 113.335 23.6284 112.855 23.4684C112.375 23.3284 111.945 23.1084 111.565 22.8084C111.185 22.5084 110.865 22.1284 110.605 21.6684C110.365 21.2084 110.245 20.6684 110.245 20.0484C110.245 19.9684 110.245 19.8884 110.245 19.8084C110.245 19.7284 110.255 19.6484 110.275 19.5684C110.355 18.7484 110.485 17.7584 110.665 16.5984C110.845 15.4384 111.035 14.2284 111.235 12.9684C111.435 11.7084 111.655 10.4484 111.895 9.1884C112.135 7.9084 112.345 6.7484 112.525 5.7084C112.725 4.6684 112.895 3.8084 113.035 3.12839C113.175 2.4284 113.265 1.9984 113.305 1.8384C113.725 1.79839 114.225 1.74839 114.805 1.6884C115.385 1.62839 115.925 1.5784 116.425 1.5384C117.045 1.4784 117.655 1.41839 118.255 1.35839C117.735 3.7784 117.275 5.9684 116.875 7.9284C116.695 8.7684 116.515 9.6084 116.335 10.4484C116.175 11.2884 116.015 12.0584 115.855 12.7584C115.715 13.4584 115.585 14.0684 115.465 14.5884C115.365 15.0884 115.275 15.4984 115.195 15.8184C115.135 16.1384 115.055 16.5484 114.955 17.0484C114.875 17.5284 114.835 17.9684 114.835 18.3684C114.835 18.6884 114.915 18.9584 115.075 19.1784C115.235 19.3784 115.435 19.4784 115.675 19.4784C116.015 19.4784 116.295 19.3484 116.515 19.0884C116.735 18.8084 116.915 18.4784 117.055 18.0984C117.215 17.7184 117.325 17.3384 117.385 16.9584C117.465 16.5584 117.535 16.2484 117.595 16.0284C117.715 15.4484 117.845 14.8084 117.985 14.1084C118.145 13.3884 118.295 12.6484 118.435 11.8884C118.595 11.1084 118.745 10.3184 118.885 9.5184C119.045 8.7184 119.195 7.93839 119.335 7.17839C119.675 5.41839 120.005 3.59839 120.325 1.71839L124.885 1.4184C124.885 1.4184 124.835 1.67839 124.735 2.19839C124.635 2.71839 124.505 3.40839 124.345 4.26839C124.185 5.1284 124.005 6.1084 123.805 7.2084C123.625 8.3084 123.415 9.4584 123.175 10.6584C122.935 11.8384 122.695 13.0084 122.455 14.1684C122.235 15.3084 122.015 16.3584 121.795 17.3184ZM122.004 23.1984C122.544 20.5384 123.064 17.9384 123.564 15.3984C123.744 14.3184 123.944 13.1984 124.164 12.0384C124.384 10.8584 124.584 9.6984 124.764 8.5584C124.964 7.3984 125.144 6.2884 125.304 5.22839C125.484 4.1484 125.624 3.1684 125.724 2.28839C126.864 1.92839 128.094 1.66839 129.414 1.50839C130.734 1.3284 132.044 1.2384 133.344 1.2384C134.124 1.2384 134.764 1.3284 135.264 1.50839C135.784 1.68839 136.184 1.94839 136.464 2.28839C136.764 2.6084 136.974 2.9884 137.094 3.42839C137.214 3.86839 137.274 4.35839 137.274 4.8984C137.274 5.6984 137.134 6.4884 136.854 7.2684C136.574 8.0284 136.194 8.7584 135.714 9.4584C135.254 10.1384 134.714 10.7684 134.094 11.3484C133.494 11.9084 132.844 12.3684 132.144 12.7284C132.504 13.5284 132.884 14.4084 133.284 15.3684C133.704 16.3084 134.094 17.2084 134.454 18.0684C134.854 19.0684 135.264 20.0684 135.684 21.0684L131.034 22.6884C130.634 21.4084 130.274 20.2084 129.954 19.0884C129.814 18.6284 129.674 18.1584 129.534 17.6784C129.394 17.1784 129.264 16.7084 129.144 16.2684C129.024 15.8284 128.924 15.4384 128.844 15.0984C128.764 14.7384 128.714 14.4484 128.694 14.2284L128.304 14.3484C128.184 14.9884 128.034 15.7384 127.854 16.5984C127.694 17.4584 127.544 18.2884 127.404 19.0884C127.224 20.0284 127.044 20.9784 126.864 21.9384L122.004 23.1984ZM129.054 10.1784C129.434 10.1384 129.894 9.9784 130.434 9.6984C130.994 9.4184 131.524 9.0884 132.024 8.7084C132.524 8.3084 132.954 7.8984 133.314 7.4784C133.674 7.0584 133.854 6.6884 133.854 6.3684C133.854 6.1484 133.784 5.97839 133.644 5.8584C133.504 5.71839 133.304 5.61839 133.044 5.5584C132.804 5.4784 132.534 5.4284 132.234 5.4084C131.934 5.38839 131.624 5.37839 131.304 5.37839C131.084 5.37839 130.854 5.38839 130.614 5.4084C130.394 5.4084 130.194 5.4084 130.014 5.4084L129.054 10.1784ZM138.904 22.4484C138.344 22.5484 137.734 22.6684 137.074 22.8084C136.414 22.9484 135.834 23.0784 135.334 23.1984C135.574 22.3384 135.804 21.3784 136.024 20.3184C136.264 19.2384 136.494 18.1084 136.714 16.9284C136.954 15.7484 137.174 14.5584 137.374 13.3584C137.594 12.1384 137.804 10.9684 138.004 9.84839C138.424 7.1884 138.844 4.4384 139.264 1.59839L149.314 1.08839L148.444 4.77839H143.734L142.804 10.1184C143.424 10.0984 144.014 10.0884 144.574 10.0884C145.034 10.0884 145.504 10.0884 145.984 10.0884C146.464 10.0884 146.834 10.0784 147.094 10.0584C147.034 10.6184 146.954 11.1684 146.854 11.7084C146.774 12.2484 146.694 12.7884 146.614 13.3284C146.354 13.3284 145.984 13.3284 145.504 13.3284C145.024 13.3084 144.524 13.2884 144.004 13.2684C143.504 13.2484 142.934 13.2284 142.294 13.2084L140.914 22.0584C140.234 22.1784 139.564 22.3084 138.904 22.4484ZM145.558 23.1984C146.098 20.5384 146.618 17.9384 147.118 15.3984C147.298 14.3184 147.498 13.1984 147.718 12.0384C147.938 10.8584 148.138 9.6984 148.318 8.5584C148.518 7.3984 148.698 6.2884 148.858 5.22839C149.038 4.1484 149.178 3.1684 149.278 2.28839C150.418 1.92839 151.648 1.66839 152.968 1.50839C154.288 1.3284 155.598 1.2384 156.898 1.2384C157.678 1.2384 158.318 1.3284 158.818 1.50839C159.338 1.68839 159.738 1.94839 160.018 2.28839C160.318 2.6084 160.528 2.9884 160.648 3.42839C160.768 3.86839 160.828 4.35839 160.828 4.8984C160.828 5.6984 160.688 6.4884 160.408 7.2684C160.128 8.0284 159.748 8.7584 159.268 9.4584C158.808 10.1384 158.268 10.7684 157.648 11.3484C157.048 11.9084 156.398 12.3684 155.698 12.7284C156.058 13.5284 156.438 14.4084 156.838 15.3684C157.258 16.3084 157.648 17.2084 158.008 18.0684C158.408 19.0684 158.818 20.0684 159.238 21.0684L154.588 22.6884C154.188 21.4084 153.828 20.2084 153.508 19.0884C153.368 18.6284 153.228 18.1584 153.088 17.6784C152.948 17.1784 152.818 16.7084 152.698 16.2684C152.578 15.8284 152.478 15.4384 152.398 15.0984C152.318 14.7384 152.268 14.4484 152.248 14.2284L151.858 14.3484C151.738 14.9884 151.588 15.7384 151.408 16.5984C151.248 17.4584 151.098 18.2884 150.958 19.0884C150.778 20.0284 150.598 20.9784 150.418 21.9384L145.558 23.1984ZM152.608 10.1784C152.988 10.1384 153.448 9.9784 153.988 9.6984C154.548 9.4184 155.078 9.0884 155.578 8.7084C156.078 8.3084 156.508 7.8984 156.868 7.4784C157.228 7.0584 157.408 6.6884 157.408 6.3684C157.408 6.1484 157.338 5.97839 157.198 5.8584C157.058 5.71839 156.858 5.61839 156.598 5.5584C156.358 5.4784 156.088 5.4284 155.788 5.4084C155.488 5.38839 155.178 5.37839 154.858 5.37839C154.638 5.37839 154.408 5.38839 154.168 5.4084C153.948 5.4084 153.748 5.4084 153.568 5.4084L152.608 10.1784ZM163.869 22.5684C163.689 22.5684 163.329 22.5984 162.789 22.6584C162.269 22.6984 161.729 22.7584 161.169 22.8384C160.609 22.8984 160.099 22.9584 159.639 23.0184C159.199 23.0784 158.959 23.1184 158.919 23.1384C159.119 22.2784 159.319 21.3284 159.519 20.2884C159.739 19.2284 159.959 18.1284 160.179 16.9884C160.399 15.8284 160.609 14.6584 160.809 13.4784C161.009 12.2984 161.199 11.1584 161.379 10.0584C161.799 7.4984 162.219 4.8684 162.639 2.16839L167.319 1.4184C166.859 4.0984 166.409 6.7284 165.969 9.3084C165.789 10.4084 165.599 11.5484 165.399 12.7284C165.219 13.9084 165.029 15.0784 164.829 16.2384C164.649 17.3984 164.479 18.5284 164.319 19.6284C164.159 20.7084 164.009 21.6884 163.869 22.5684ZM165.073 23.1984L169.003 1.86839L178.483 1.05839C178.343 1.49839 178.223 1.9484 178.123 2.4084C178.023 2.78839 177.923 3.1884 177.823 3.6084C177.743 4.0084 177.673 4.36839 177.613 4.68839C177.413 4.7084 177.123 4.7284 176.743 4.7484C176.383 4.7484 175.993 4.7584 175.573 4.77839C175.153 4.77839 174.723 4.77839 174.283 4.77839C173.863 4.77839 173.493 4.77839 173.173 4.77839L172.123 10.1484C172.743 10.1084 173.323 10.0784 173.863 10.0584C174.303 10.0384 174.753 10.0284 175.213 10.0284C175.673 10.0284 176.013 10.0184 176.233 9.9984C176.153 10.5584 176.073 11.1084 175.993 11.6484C175.933 12.1884 175.853 12.7384 175.753 13.2984C175.553 13.3184 175.223 13.3384 174.763 13.3584C174.323 13.3584 173.873 13.3684 173.413 13.3884C172.893 13.4084 172.323 13.4284 171.703 13.4484L170.683 18.9684L175.063 18.2784L174.763 21.6984L165.073 23.1984ZM175.208 23.3184C175.808 20.4384 176.378 17.6484 176.918 14.9484C177.118 13.7884 177.328 12.5884 177.548 11.3484C177.788 10.1084 178.008 8.8884 178.208 7.6884C178.408 6.4684 178.588 5.3084 178.748 4.2084C178.908 3.0884 179.028 2.0784 179.108 1.17839C179.368 1.19839 179.588 1.20839 179.768 1.20839C179.948 1.20839 180.158 1.20839 180.398 1.20839C180.678 1.20839 181.018 1.20839 181.418 1.20839C181.818 1.18839 182.218 1.16839 182.618 1.1484C183.018 1.1284 183.448 1.1084 183.908 1.08839C184.188 2.4884 184.438 3.8384 184.658 5.1384C184.878 6.2784 185.098 7.4484 185.318 8.6484C185.558 9.8484 185.768 10.8684 185.948 11.7084C186.028 11.3084 186.118 10.8484 186.218 10.3284C186.318 9.7884 186.428 9.2284 186.548 8.6484C186.668 8.0684 186.778 7.4884 186.878 6.90839C186.998 6.30839 187.118 5.7184 187.238 5.1384C187.518 3.8384 187.808 2.4984 188.108 1.1184L191.768 0.668394C191.088 3.7284 190.488 6.6284 189.968 9.3684C189.728 10.5484 189.488 11.7484 189.248 12.9684C189.028 14.1684 188.818 15.3284 188.618 16.4484C188.418 17.5484 188.248 18.5784 188.108 19.5384C187.968 20.4784 187.858 21.2684 187.778 21.9084C187.718 21.9084 187.478 21.9584 187.058 22.0584C186.658 22.1384 186.188 22.2384 185.648 22.3584C185.128 22.4784 184.598 22.5984 184.058 22.7184C183.538 22.8384 183.148 22.9484 182.888 23.0484C182.768 21.4484 182.638 19.9284 182.498 18.4884C182.438 17.8684 182.368 17.2384 182.288 16.5984C182.228 15.9384 182.158 15.3084 182.078 14.7084C181.998 14.1084 181.918 13.5484 181.838 13.0284C181.758 12.5084 181.678 12.0584 181.598 11.6784C181.538 12.0584 181.458 12.4984 181.358 12.9984C181.258 13.4984 181.158 14.0284 181.058 14.5884C180.958 15.1484 180.858 15.7384 180.758 16.3584C180.658 16.9584 180.548 17.5384 180.428 18.0984C180.168 19.4384 179.888 20.8384 179.588 22.2984L175.208 23.3184ZM203.892 7.83839C203.892 8.8784 203.742 9.9884 203.442 11.1684C203.142 12.3284 202.722 13.4884 202.182 14.6484C201.642 15.7884 200.972 16.8884 200.172 17.9484C199.392 18.9884 198.502 19.9084 197.502 20.7084C196.502 21.4884 195.402 22.1184 194.202 22.5984C193.022 23.0784 191.762 23.3184 190.422 23.3184C190.142 23.3184 189.862 23.2984 189.582 23.2584C189.302 23.2384 189.022 23.2084 188.742 23.1684C189.282 20.4084 189.812 17.7184 190.332 15.0984C190.532 13.9984 190.742 12.8584 190.962 11.6784C191.182 10.4784 191.392 9.2984 191.592 8.13839C191.792 6.9784 191.982 5.8684 192.162 4.80839C192.362 3.7484 192.522 2.7884 192.642 1.9284C193.502 1.7684 194.372 1.6184 195.252 1.47839C196.132 1.3384 197.032 1.2684 197.952 1.2684C199.032 1.2684 199.942 1.4384 200.682 1.77839C201.442 2.11839 202.052 2.5884 202.512 3.1884C202.992 3.7884 203.342 4.4884 203.562 5.2884C203.782 6.08839 203.892 6.93839 203.892 7.83839ZM196.812 5.49839C196.592 6.67839 196.362 7.8084 196.122 8.8884C195.882 9.9684 195.642 11.0584 195.402 12.1584C195.162 13.2584 194.922 14.4084 194.682 15.6084C194.442 16.8084 194.212 18.1184 193.992 19.5384C194.472 19.2184 194.932 18.7884 195.372 18.2484C195.832 17.6884 196.262 17.0484 196.662 16.3284C197.062 15.6084 197.422 14.8484 197.742 14.0484C198.082 13.2484 198.372 12.4684 198.612 11.7084C198.852 10.9484 199.032 10.2384 199.152 9.5784C199.292 8.9184 199.362 8.34839 199.362 7.86839C199.362 7.12839 199.152 6.54839 198.732 6.1284C198.332 5.70839 197.692 5.49839 196.812 5.49839ZM215.154 15.7584C215.154 16.8784 214.934 17.8984 214.494 18.8184C214.074 19.7184 213.494 20.4984 212.754 21.1584C212.034 21.8184 211.174 22.3284 210.174 22.6884C209.194 23.0484 208.134 23.2284 206.994 23.2284C206.194 23.2284 205.394 23.0184 204.594 22.5984C203.794 22.1584 203.024 21.4684 202.284 20.5284L204.504 16.1784C204.644 16.4384 204.854 16.7084 205.134 16.9884C205.414 17.2484 205.724 17.4784 206.064 17.6784C206.424 17.8784 206.774 18.0484 207.114 18.1884C207.474 18.3084 207.794 18.3684 208.074 18.3684C208.314 18.3684 208.564 18.3284 208.824 18.2484C209.084 18.1684 209.324 18.0484 209.544 17.8884C209.764 17.7284 209.934 17.5484 210.054 17.3484C210.194 17.1284 210.264 16.8784 210.264 16.5984C210.264 16.1184 210.104 15.6784 209.784 15.2784C209.484 14.8584 209.104 14.4684 208.644 14.1084C208.184 13.7284 207.684 13.3484 207.144 12.9684C206.604 12.5884 206.104 12.1884 205.644 11.7684C205.204 11.3484 204.824 10.8784 204.504 10.3584C204.184 9.8384 204.024 9.2584 204.024 8.6184C204.024 7.5784 204.334 6.6084 204.954 5.7084C205.574 4.8084 206.344 4.03839 207.264 3.39839C208.204 2.73839 209.224 2.2184 210.324 1.8384C211.424 1.4584 212.464 1.2684 213.444 1.2684C213.984 1.2684 214.494 1.3384 214.974 1.47839C215.454 1.5984 215.864 1.8084 216.204 2.1084C216.564 2.3884 216.844 2.7484 217.044 3.1884C217.264 3.62839 217.374 4.17839 217.374 4.8384C217.374 5.1184 217.344 5.3984 217.284 5.6784C217.244 5.9584 217.204 6.2584 217.164 6.5784L212.814 7.83839C212.854 7.67839 212.884 7.51839 212.904 7.3584C212.944 7.1984 212.964 7.0384 212.964 6.87839C212.964 6.2784 212.854 5.8484 212.634 5.5884C212.434 5.3084 212.164 5.1684 211.824 5.1684C211.664 5.1684 211.464 5.2284 211.224 5.34839C211.004 5.4684 210.774 5.6284 210.534 5.8284C210.314 6.0084 210.124 6.2284 209.964 6.48839C209.804 6.74839 209.724 7.0284 209.724 7.3284C209.724 7.8084 209.854 8.2084 210.114 8.52839C210.394 8.84839 210.734 9.1484 211.134 9.42839C211.534 9.70839 211.964 9.9984 212.424 10.2984C212.904 10.5784 213.344 10.9484 213.744 11.4084C214.144 11.8684 214.474 12.4484 214.734 13.1484C215.014 13.8284 215.154 14.6984 215.154 15.7584Z" fill="#F7DD43"/>
</svg>
