<svg width="212" height="40" viewBox="0 0 217 24" fill="none" xmlns="http://www.w3.org/2000/svg">
<path d="M13.841 15.4566C13.841 16.2766 13.671 17.0366 13.331 17.7366C12.991 18.4366 12.531 19.0766 11.951 19.6566C11.371 20.2166 10.691 20.7166 9.91101 21.1566C9.15101 21.5766 8.34101 21.9366 7.48101 22.2366C6.64101 22.5166 5.77101 22.7366 4.87101 22.8966C3.99101 23.0366 3.14101 23.1066 2.32101 23.1066C1.58101 23.1066 0.891006 23.0466 0.251006 22.9266C1.21101 19.4266 1.97101 15.9066 2.53101 12.3666C3.11101 8.80657 3.66101 5.22657 4.18101 1.62657C5.22101 1.40657 6.30101 1.21657 7.42101 1.05657C8.54101 0.876572 9.70101 0.786572 10.901 0.786572C11.401 0.786572 11.931 0.846572 12.491 0.966571C13.051 1.08657 13.561 1.30657 14.021 1.62657C14.481 1.94657 14.861 2.36657 15.161 2.88657C15.481 3.40657 15.641 4.06657 15.641 4.86657C15.641 5.62657 15.511 6.33657 15.251 6.99657C15.011 7.65657 14.691 8.25657 14.291 8.79657C13.911 9.33657 13.471 9.80657 12.971 10.2066C12.471 10.5866 11.961 10.8766 11.441 11.0766C11.701 11.2166 11.971 11.4166 12.251 11.6766C12.531 11.9366 12.791 12.2466 13.031 12.6066C13.271 12.9466 13.461 13.3566 13.601 13.8366C13.761 14.3166 13.841 14.8566 13.841 15.4566ZM6.97101 12.3366C6.89101 12.8166 6.81101 13.2466 6.73101 13.6266C6.67101 13.9866 6.61101 14.3366 6.55101 14.6766C6.49101 15.0166 6.42101 15.3766 6.34101 15.7566C6.28101 16.1166 6.21101 16.5466 6.13101 17.0466C6.51101 17.0066 6.94101 16.9366 7.42101 16.8366C7.90101 16.7366 8.36101 16.5866 8.80101 16.3866C9.24101 16.1666 9.61101 15.8866 9.91101 15.5466C10.211 15.1866 10.361 14.7566 10.361 14.2566C10.361 13.8966 10.261 13.5966 10.061 13.3566C9.88101 13.1166 9.64101 12.9166 9.34101 12.7566C9.06101 12.5966 8.75101 12.4866 8.41101 12.4266C8.07101 12.3466 7.75101 12.3066 7.45101 12.3066C7.35101 12.3066 7.26101 12.3066 7.18101 12.3066C7.12101 12.3066 7.05101 12.3166 6.97101 12.3366ZM8.32101 5.07657C8.28101 5.29657 8.23101 5.55657 8.17101 5.85657C8.13101 6.15657 8.08101 6.47657 8.02101 6.81657C7.96101 7.13657 7.89101 7.45657 7.81101 7.77657C7.75101 8.09657 7.70101 8.37657 7.66101 8.61657C8.10101 8.53657 8.54101 8.42657 8.98101 8.28657C9.42101 8.14657 9.81101 7.99657 10.151 7.83657C10.511 7.65657 10.791 7.46657 10.991 7.26657C11.211 7.06657 11.321 6.84657 11.321 6.60657C11.321 6.30657 11.231 6.06657 11.051 5.88657C10.871 5.68657 10.631 5.52657 10.331 5.40657C10.051 5.28657 9.75101 5.20657 9.43101 5.16657C9.13101 5.10657 8.86101 5.07657 8.62101 5.07657H8.32101ZM13.353 23.0166L17.283 1.68657L26.763 0.876571C26.623 1.31657 26.503 1.76657 26.403 2.22657C26.303 2.60657 26.203 3.00657 26.103 3.42657C26.023 3.82657 25.953 4.18657 25.893 4.50657C25.693 4.52657 25.403 4.54657 25.023 4.56657C24.663 4.56657 24.273 4.57657 23.853 4.59657C23.433 4.59657 23.003 4.59657 22.563 4.59657C22.143 4.59657 21.773 4.59657 21.453 4.59657L20.403 9.96657C21.023 9.92657 21.603 9.89657 22.143 9.87657C22.583 9.85657 23.033 9.84657 23.493 9.84657C23.953 9.84657 24.293 9.83657 24.513 9.81657C24.433 10.3766 24.353 10.9266 24.273 11.4666C24.213 12.0066 24.133 12.5566 24.033 13.1166C23.833 13.1366 23.503 13.1566 23.043 13.1766C22.603 13.1766 22.153 13.1866 21.693 13.2066C21.173 13.2266 20.603 13.2466 19.983 13.2666L18.963 18.7866L23.343 18.0966L23.043 21.5166L13.353 23.0166ZM26.0376 23.0166C26.4976 20.8166 26.9376 18.6466 27.3576 16.5066C27.5376 15.6066 27.7176 14.6666 27.8976 13.6866C28.0776 12.7066 28.2476 11.7466 28.4076 10.8066C28.5876 9.84657 28.7376 8.92657 28.8576 8.04657C28.9976 7.14657 29.1176 6.32657 29.2176 5.58657C28.7576 5.52657 28.2876 5.50657 27.8076 5.52657C27.3476 5.54657 26.8876 5.48657 26.4276 5.34657C26.4476 5.02657 26.4576 4.65657 26.4576 4.23657C26.4576 3.81657 26.4676 3.39657 26.4876 2.97657C26.5076 2.51657 26.5276 2.02657 26.5476 1.50657C27.0676 1.54657 27.5876 1.57657 28.1076 1.59657C28.6276 1.61657 29.1476 1.62657 29.6676 1.62657C30.6876 1.62657 31.6676 1.60657 32.6076 1.56657C33.5676 1.50657 34.4476 1.44657 35.2476 1.38657C36.0676 1.30657 36.8676 1.21657 37.6476 1.11657L37.3176 2.73657C37.2176 3.19657 37.1176 3.66657 37.0176 4.14657C36.9376 4.62657 36.8576 5.03657 36.7776 5.37657C36.3376 5.49657 35.8876 5.58657 35.4276 5.64657C34.9876 5.68657 34.5476 5.74657 34.1076 5.82657C33.9676 6.50657 33.8176 7.26657 33.6576 8.10657C33.4976 8.92657 33.3376 9.78657 33.1776 10.6866C33.0376 11.5666 32.8976 12.4666 32.7576 13.3866C32.6176 14.3066 32.4776 15.1866 32.3376 16.0266C32.0176 18.0066 31.7176 20.0566 31.4376 22.1766L26.0376 23.0166ZM35.4368 23.1066L37.7168 1.80657C38.6568 1.76657 39.5368 1.67657 40.3568 1.53657C41.1968 1.37657 42.0268 1.26657 42.8468 1.20657C42.8468 1.22657 42.8168 1.43657 42.7568 1.83657C42.6968 2.21657 42.6168 2.72657 42.5168 3.36657C42.4168 3.98657 42.3068 4.69657 42.1868 5.49657C42.0668 6.27657 41.8868 7.35657 41.6468 8.73657C41.4268 10.1166 41.1268 12.0266 40.7468 14.4666H41.1968C41.7168 12.6266 42.1468 11.1266 42.4868 9.96657C42.8268 8.78657 43.0968 7.83657 43.2968 7.11657C43.5168 6.37657 43.7168 5.66657 43.8968 4.98657C44.0968 4.30657 44.2768 3.67657 44.4368 3.09657C44.6168 2.51657 44.7568 2.02657 44.8568 1.62657H45.1268C45.4868 1.62657 45.8468 1.60657 46.2068 1.56657C46.5868 1.52657 46.9368 1.48657 47.2568 1.44657C47.5968 1.38657 47.9468 1.31657 48.3068 1.23657C48.2668 1.41657 48.2168 1.78657 48.1568 2.34657C48.1168 2.90657 48.0568 3.58657 47.9768 4.38657C47.8968 5.16657 47.8168 6.03657 47.7368 6.99657C47.6568 7.93657 47.5768 8.86657 47.4968 9.78657C47.4168 10.6866 47.3368 11.5466 47.2568 12.3666C47.1968 13.1866 47.1368 13.8866 47.0768 14.4666H47.6168L50.4668 1.56657C51.1468 1.46657 51.8168 1.37657 52.4768 1.29657C53.0568 1.21657 53.6568 1.13657 54.2768 1.05657C54.8968 0.976572 55.4468 0.886572 55.9268 0.786572C55.6268 1.62657 55.3268 2.56657 55.0268 3.60657C54.7268 4.62657 54.4168 5.70657 54.0968 6.84657C53.7768 7.98657 53.4668 9.13657 53.1668 10.2966C52.8868 11.4566 52.6068 12.5766 52.3268 13.6566C51.6868 16.2166 51.0668 18.8466 50.4668 21.5466L43.6868 22.6866L45.0068 11.1066H44.6468L41.6768 21.9966L35.4368 23.1066ZM57.3244 22.3866C57.1444 22.3866 56.7844 22.4166 56.2444 22.4766C55.7244 22.5166 55.1844 22.5766 54.6244 22.6566C54.0644 22.7166 53.5544 22.7766 53.0944 22.8366C52.6544 22.8966 52.4144 22.9366 52.3744 22.9566C52.5744 22.0966 52.7744 21.1466 52.9744 20.1066C53.1944 19.0466 53.4144 17.9466 53.6344 16.8066C53.8544 15.6466 54.0644 14.4766 54.2644 13.2966C54.4644 12.1166 54.6544 10.9766 54.8344 9.87657C55.2544 7.31657 55.6744 4.68657 56.0944 1.98657L60.7744 1.23657C60.3144 3.91657 59.8644 6.54657 59.4244 9.12657C59.2444 10.2266 59.0544 11.3666 58.8544 12.5466C58.6744 13.7266 58.4844 14.8966 58.2844 16.0566C58.1044 17.2166 57.9344 18.3466 57.7744 19.4466C57.6144 20.5266 57.4644 21.5066 57.3244 22.3866ZM60.9888 23.0166C61.4488 20.8166 61.8888 18.6466 62.3088 16.5066C62.4888 15.6066 62.6688 14.6666 62.8488 13.6866C63.0288 12.7066 63.1988 11.7466 63.3588 10.8066C63.5388 9.84657 63.6888 8.92657 63.8088 8.04657C63.9488 7.14657 64.0688 6.32657 64.1688 5.58657C63.7088 5.52657 63.2388 5.50657 62.7588 5.52657C62.2988 5.54657 61.8388 5.48657 61.3788 5.34657C61.3988 5.02657 61.4088 4.65657 61.4088 4.23657C61.4088 3.81657 61.4188 3.39657 61.4388 2.97657C61.4588 2.51657 61.4788 2.02657 61.4988 1.50657C62.0188 1.54657 62.5388 1.57657 63.0588 1.59657C63.5788 1.61657 64.0988 1.62657 64.6188 1.62657C65.6388 1.62657 66.6188 1.60657 67.5588 1.56657C68.5188 1.50657 69.3988 1.44657 70.1988 1.38657C71.0188 1.30657 71.8188 1.21657 72.5988 1.11657L72.2688 2.73657C72.1688 3.19657 72.0688 3.66657 71.9688 4.14657C71.8888 4.62657 71.8088 5.03657 71.7288 5.37657C71.2888 5.49657 70.8388 5.58657 70.3788 5.64657C69.9388 5.68657 69.4988 5.74657 69.0588 5.82657C68.9188 6.50657 68.7688 7.26657 68.6088 8.10657C68.4488 8.92657 68.2888 9.78657 68.1288 10.6866C67.9888 11.5666 67.8488 12.4666 67.7088 13.3866C67.5688 14.3066 67.4288 15.1866 67.2888 16.0266C66.9688 18.0066 66.6688 20.0566 66.3888 22.1766L60.9888 23.0166ZM69.398 23.0466C69.958 20.2466 70.498 17.5166 71.018 14.8566C71.218 13.7166 71.428 12.5366 71.648 11.3166C71.868 10.0766 72.068 8.85657 72.248 7.65657C72.448 6.45657 72.628 5.29657 72.788 4.17657C72.968 3.03657 73.108 2.00657 73.208 1.08657C73.668 1.10657 74.088 1.13657 74.468 1.17657C74.868 1.19657 75.258 1.21657 75.638 1.23657C76.018 1.25657 76.398 1.27657 76.778 1.29657C77.178 1.29657 77.608 1.29657 78.068 1.29657C77.728 2.71657 77.388 4.13657 77.048 5.55657C76.728 6.97657 76.428 8.40657 76.148 9.84657L79.118 9.51657C79.398 8.09657 79.648 6.72657 79.868 5.40657C80.088 4.06657 80.378 2.68657 80.738 1.26657C81.198 1.18657 81.708 1.12657 82.268 1.08657C82.828 1.02657 83.348 0.976571 83.828 0.936572C84.308 0.896571 84.708 0.866571 85.028 0.846571C85.368 0.806572 85.538 0.786572 85.538 0.786572C85.258 1.68657 84.988 2.67657 84.728 3.75657C84.488 4.81657 84.248 5.92657 84.008 7.08657C83.768 8.22657 83.538 9.38657 83.318 10.5666C83.098 11.7466 82.898 12.8666 82.718 13.9266C82.278 16.4666 81.868 19.0666 81.488 21.7266L76.808 22.2666C77.068 21.0666 77.298 19.8966 77.498 18.7566C77.698 17.7966 77.898 16.7966 78.098 15.7566C78.318 14.7166 78.488 13.8266 78.608 13.0866L75.698 13.3566C75.558 14.1166 75.388 14.9966 75.188 15.9966C75.008 16.9966 74.838 17.9466 74.678 18.8466C74.458 19.9266 74.238 21.0066 74.018 22.0866L69.398 23.0466ZM84.7101 22.5366L86.0901 16.5066C86.0901 15.6466 86.0701 14.7166 86.0301 13.7166C86.0101 12.6966 85.9701 11.6766 85.9101 10.6566C85.8501 9.63657 85.7901 8.65657 85.7301 7.71657C85.6701 6.75657 85.6201 5.91657 85.5801 5.19657C85.5401 4.45657 85.5001 3.86657 85.4601 3.42657C85.4201 2.98657 85.4001 2.76657 85.4001 2.76657L90.2901 0.90657V4.56657C90.2901 5.06657 90.2901 5.57657 90.2901 6.09657C90.2901 6.61657 90.2801 7.12657 90.2601 7.62657C90.2601 8.12657 90.2601 8.59657 90.2601 9.03657C90.2601 9.47657 90.2601 9.84657 90.2601 10.1466C90.5201 9.46657 90.8301 8.62657 91.1901 7.62657C91.5701 6.62657 91.9201 5.65657 92.2401 4.71657C92.6201 3.61657 93.0101 2.45657 93.4101 1.23657L98.0601 2.28657C97.2001 4.00657 96.3601 5.71657 95.5401 7.41657C95.2001 8.15657 94.8401 8.92657 94.4601 9.72657C94.0801 10.5066 93.7001 11.2966 93.3201 12.0966C92.9401 12.8766 92.5701 13.6366 92.2101 14.3766C91.8501 15.1166 91.5201 15.8066 91.2201 16.4466C91.1201 16.9666 90.9901 17.5366 90.8301 18.1566C90.6901 18.7766 90.5501 19.3666 90.4101 19.9266C90.2301 20.5866 90.0401 21.2466 89.8401 21.9066L84.7101 22.5366ZM110.714 6.75657C110.714 8.39657 110.534 9.94657 110.174 11.4066C109.834 12.8466 109.374 14.1766 108.794 15.3966C108.214 16.5966 107.534 17.6766 106.754 18.6366C105.994 19.5766 105.194 20.3866 104.354 21.0666C103.514 21.7266 102.664 22.2366 101.804 22.5966C100.944 22.9366 100.124 23.1066 99.3438 23.1066C98.6838 23.1066 98.0838 22.9866 97.5438 22.7466C97.0038 22.4866 96.5338 22.1166 96.1338 21.6366C95.7338 21.1366 95.4138 20.5066 95.1738 19.7466C94.9538 18.9666 94.8438 18.0366 94.8438 16.9566C94.8438 15.8366 94.9838 14.6566 95.2638 13.4166C95.5438 12.1766 95.9238 10.9466 96.4038 9.72657C96.8838 8.50657 97.4738 7.34657 98.1738 6.24657C98.8738 5.14657 99.6438 4.17657 100.484 3.33657C101.324 2.47657 102.224 1.79657 103.184 1.29657C104.144 0.796571 105.144 0.546571 106.184 0.546571C107.084 0.546571 107.824 0.736571 108.404 1.11657C109.004 1.47657 109.464 1.95657 109.784 2.55657C110.124 3.13657 110.364 3.79657 110.504 4.53657C110.644 5.27657 110.714 6.01657 110.714 6.75657ZM99.3138 16.1766C99.3138 16.3966 99.3538 16.6266 99.4338 16.8666C99.5138 17.1066 99.6238 17.3166 99.7638 17.4966C99.9038 17.6766 100.074 17.8366 100.274 17.9766C100.494 18.0966 100.724 18.1566 100.964 18.1566C101.864 18.1566 102.664 17.8466 103.364 17.2266C104.064 16.6066 104.644 15.8466 105.104 14.9466C105.564 14.0466 105.914 13.0866 106.154 12.0666C106.414 11.0466 106.544 10.1166 106.544 9.27657C106.544 9.03657 106.524 8.77657 106.484 8.49657C106.464 8.21657 106.404 7.95657 106.304 7.71657C106.224 7.47657 106.084 7.27657 105.884 7.11657C105.704 6.93657 105.454 6.84657 105.134 6.84657C104.494 6.84657 103.904 7.00657 103.364 7.32657C102.824 7.64657 102.334 8.07657 101.894 8.61657C101.474 9.13657 101.104 9.73657 100.784 10.4166C100.464 11.0766 100.184 11.7566 99.9438 12.4566C99.7238 13.1366 99.5638 13.8066 99.4638 14.4666C99.3638 15.1266 99.3138 15.6966 99.3138 16.1766ZM121.189 17.1366C120.909 18.2766 120.509 19.2466 119.989 20.0466C119.489 20.8466 118.889 21.5066 118.189 22.0266C117.509 22.5466 116.779 22.9266 115.999 23.1666C115.219 23.4066 114.439 23.5266 113.659 23.5266C113.199 23.5266 112.729 23.4466 112.249 23.2866C111.769 23.1466 111.339 22.9266 110.959 22.6266C110.579 22.3266 110.259 21.9466 109.999 21.4866C109.759 21.0266 109.639 20.4866 109.639 19.8666C109.639 19.7866 109.639 19.7066 109.639 19.6266C109.639 19.5466 109.649 19.4666 109.669 19.3866C109.749 18.5666 109.879 17.5766 110.059 16.4166C110.239 15.2566 110.429 14.0466 110.629 12.7866C110.829 11.5266 111.049 10.2666 111.289 9.00657C111.529 7.72657 111.739 6.56657 111.919 5.52657C112.119 4.48657 112.289 3.62657 112.429 2.94657C112.569 2.24657 112.659 1.81657 112.699 1.65657C113.119 1.61657 113.619 1.56657 114.199 1.50657C114.779 1.44657 115.319 1.39657 115.819 1.35657C116.439 1.29657 117.049 1.23657 117.649 1.17657C117.129 3.59657 116.669 5.78657 116.269 7.74657C116.089 8.58657 115.909 9.42657 115.729 10.2666C115.569 11.1066 115.409 11.8766 115.249 12.5766C115.109 13.2766 114.979 13.8866 114.859 14.4066C114.759 14.9066 114.669 15.3166 114.589 15.6366C114.529 15.9566 114.449 16.3666 114.349 16.8666C114.269 17.3466 114.229 17.7866 114.229 18.1866C114.229 18.5066 114.309 18.7766 114.469 18.9966C114.629 19.1966 114.829 19.2966 115.069 19.2966C115.409 19.2966 115.689 19.1666 115.909 18.9066C116.129 18.6266 116.309 18.2966 116.449 17.9166C116.609 17.5366 116.719 17.1566 116.779 16.7766C116.859 16.3766 116.929 16.0666 116.989 15.8466C117.109 15.2666 117.239 14.6266 117.379 13.9266C117.539 13.2066 117.689 12.4666 117.829 11.7066C117.989 10.9266 118.139 10.1366 118.279 9.33657C118.439 8.53657 118.589 7.75657 118.729 6.99657C119.069 5.23657 119.399 3.41657 119.719 1.53657L124.279 1.23657C124.279 1.23657 124.229 1.49657 124.129 2.01657C124.029 2.53657 123.899 3.22657 123.739 4.08657C123.579 4.94657 123.399 5.92657 123.199 7.02657C123.019 8.12657 122.809 9.27657 122.569 10.4766C122.329 11.6566 122.089 12.8266 121.849 13.9866C121.629 15.1266 121.409 16.1766 121.189 17.1366ZM121.397 23.0166C121.937 20.3566 122.457 17.7566 122.957 15.2166C123.137 14.1366 123.337 13.0166 123.557 11.8566C123.777 10.6766 123.977 9.51657 124.157 8.37657C124.357 7.21657 124.537 6.10657 124.697 5.04657C124.877 3.96657 125.017 2.98657 125.117 2.10657C126.257 1.74657 127.487 1.48657 128.807 1.32657C130.127 1.14657 131.437 1.05657 132.737 1.05657C133.517 1.05657 134.157 1.14657 134.657 1.32657C135.177 1.50657 135.577 1.76657 135.857 2.10657C136.157 2.42657 136.367 2.80657 136.487 3.24657C136.607 3.68657 136.667 4.17657 136.667 4.71657C136.667 5.51657 136.527 6.30657 136.247 7.08657C135.967 7.84657 135.587 8.57657 135.107 9.27657C134.647 9.95657 134.107 10.5866 133.487 11.1666C132.887 11.7266 132.237 12.1866 131.537 12.5466C131.897 13.3466 132.277 14.2266 132.677 15.1866C133.097 16.1266 133.487 17.0266 133.847 17.8866C134.247 18.8866 134.657 19.8866 135.077 20.8866L130.427 22.5066C130.027 21.2266 129.667 20.0266 129.347 18.9066C129.207 18.4466 129.067 17.9766 128.927 17.4966C128.787 16.9966 128.657 16.5266 128.537 16.0866C128.417 15.6466 128.317 15.2566 128.237 14.9166C128.157 14.5566 128.107 14.2666 128.087 14.0466L127.697 14.1666C127.577 14.8066 127.427 15.5566 127.247 16.4166C127.087 17.2766 126.937 18.1066 126.797 18.9066C126.617 19.8466 126.437 20.7966 126.257 21.7566L121.397 23.0166ZM128.447 9.99657C128.827 9.95657 129.287 9.79657 129.827 9.51657C130.387 9.23657 130.917 8.90657 131.417 8.52657C131.917 8.12657 132.347 7.71657 132.707 7.29657C133.067 6.87657 133.247 6.50657 133.247 6.18657C133.247 5.96657 133.177 5.79657 133.037 5.67657C132.897 5.53657 132.697 5.43657 132.437 5.37657C132.197 5.29657 131.927 5.24657 131.627 5.22657C131.327 5.20657 131.017 5.19657 130.697 5.19657C130.477 5.19657 130.247 5.20657 130.007 5.22657C129.787 5.22657 129.587 5.22657 129.407 5.22657L128.447 9.99657ZM138.297 22.2666C137.737 22.3666 137.127 22.4866 136.467 22.6266C135.807 22.7666 135.227 22.8966 134.727 23.0166C134.967 22.1566 135.197 21.1966 135.417 20.1366C135.657 19.0566 135.887 17.9266 136.107 16.7466C136.347 15.5666 136.567 14.3766 136.767 13.1766C136.987 11.9566 137.197 10.7866 137.397 9.66657C137.817 7.00657 138.237 4.25657 138.657 1.41657L148.707 0.90657L147.837 4.59657H143.127L142.197 9.93657C142.817 9.91657 143.407 9.90657 143.967 9.90657C144.427 9.90657 144.897 9.90657 145.377 9.90657C145.857 9.90657 146.227 9.89657 146.487 9.87657C146.427 10.4366 146.347 10.9866 146.247 11.5266C146.167 12.0666 146.087 12.6066 146.007 13.1466C145.747 13.1466 145.377 13.1466 144.897 13.1466C144.417 13.1266 143.917 13.1066 143.397 13.0866C142.897 13.0666 142.327 13.0466 141.687 13.0266L140.307 21.8766C139.627 21.9966 138.957 22.1266 138.297 22.2666ZM144.952 23.0166C145.492 20.3566 146.012 17.7566 146.512 15.2166C146.692 14.1366 146.892 13.0166 147.112 11.8566C147.332 10.6766 147.532 9.51657 147.712 8.37657C147.912 7.21657 148.092 6.10657 148.252 5.04657C148.432 3.96657 148.572 2.98657 148.672 2.10657C149.812 1.74657 151.042 1.48657 152.362 1.32657C153.682 1.14657 154.992 1.05657 156.292 1.05657C157.072 1.05657 157.712 1.14657 158.212 1.32657C158.732 1.50657 159.132 1.76657 159.412 2.10657C159.712 2.42657 159.922 2.80657 160.042 3.24657C160.162 3.68657 160.222 4.17657 160.222 4.71657C160.222 5.51657 160.082 6.30657 159.802 7.08657C159.522 7.84657 159.142 8.57657 158.662 9.27657C158.202 9.95657 157.662 10.5866 157.042 11.1666C156.442 11.7266 155.792 12.1866 155.092 12.5466C155.452 13.3466 155.832 14.2266 156.232 15.1866C156.652 16.1266 157.042 17.0266 157.402 17.8866C157.802 18.8866 158.212 19.8866 158.632 20.8866L153.982 22.5066C153.582 21.2266 153.222 20.0266 152.902 18.9066C152.762 18.4466 152.622 17.9766 152.482 17.4966C152.342 16.9966 152.212 16.5266 152.092 16.0866C151.972 15.6466 151.872 15.2566 151.792 14.9166C151.712 14.5566 151.662 14.2666 151.642 14.0466L151.252 14.1666C151.132 14.8066 150.982 15.5566 150.802 16.4166C150.642 17.2766 150.492 18.1066 150.352 18.9066C150.172 19.8466 149.992 20.7966 149.812 21.7566L144.952 23.0166ZM152.002 9.99657C152.382 9.95657 152.842 9.79657 153.382 9.51657C153.942 9.23657 154.472 8.90657 154.972 8.52657C155.472 8.12657 155.902 7.71657 156.262 7.29657C156.622 6.87657 156.802 6.50657 156.802 6.18657C156.802 5.96657 156.732 5.79657 156.592 5.67657C156.452 5.53657 156.252 5.43657 155.992 5.37657C155.752 5.29657 155.482 5.24657 155.182 5.22657C154.882 5.20657 154.572 5.19657 154.252 5.19657C154.032 5.19657 153.802 5.20657 153.562 5.22657C153.342 5.22657 153.142 5.22657 152.962 5.22657L152.002 9.99657ZM163.262 22.3866C163.082 22.3866 162.722 22.4166 162.182 22.4766C161.662 22.5166 161.122 22.5766 160.562 22.6566C160.002 22.7166 159.492 22.7766 159.032 22.8366C158.592 22.8966 158.352 22.9366 158.312 22.9566C158.512 22.0966 158.712 21.1466 158.912 20.1066C159.132 19.0466 159.352 17.9466 159.572 16.8066C159.792 15.6466 160.002 14.4766 160.202 13.2966C160.402 12.1166 160.592 10.9766 160.772 9.87657C161.192 7.31657 161.612 4.68657 162.032 1.98657L166.712 1.23657C166.252 3.91657 165.802 6.54657 165.362 9.12657C165.182 10.2266 164.992 11.3666 164.792 12.5466C164.612 13.7266 164.422 14.8966 164.222 16.0566C164.042 17.2166 163.872 18.3466 163.712 19.4466C163.552 20.5266 163.402 21.5066 163.262 22.3866ZM164.466 23.0166L168.396 1.68657L177.876 0.876571C177.736 1.31657 177.616 1.76657 177.516 2.22657C177.416 2.60657 177.316 3.00657 177.216 3.42657C177.136 3.82657 177.066 4.18657 177.006 4.50657C176.806 4.52657 176.516 4.54657 176.136 4.56657C175.776 4.56657 175.386 4.57657 174.966 4.59657C174.546 4.59657 174.116 4.59657 173.676 4.59657C173.256 4.59657 172.886 4.59657 172.566 4.59657L171.516 9.96657C172.136 9.92657 172.716 9.89657 173.256 9.87657C173.696 9.85657 174.146 9.84657 174.606 9.84657C175.066 9.84657 175.406 9.83657 175.626 9.81657C175.546 10.3766 175.466 10.9266 175.386 11.4666C175.326 12.0066 175.246 12.5566 175.146 13.1166C174.946 13.1366 174.616 13.1566 174.156 13.1766C173.716 13.1766 173.266 13.1866 172.806 13.2066C172.286 13.2266 171.716 13.2466 171.096 13.2666L170.076 18.7866L174.456 18.0966L174.156 21.5166L164.466 23.0166ZM174.601 23.1366C175.201 20.2566 175.771 17.4666 176.311 14.7666C176.511 13.6066 176.721 12.4066 176.941 11.1666C177.181 9.92657 177.401 8.70657 177.601 7.50657C177.801 6.28657 177.981 5.12657 178.141 4.02657C178.301 2.90657 178.421 1.89657 178.501 0.996571C178.761 1.01657 178.981 1.02657 179.161 1.02657C179.341 1.02657 179.551 1.02657 179.791 1.02657C180.071 1.02657 180.411 1.02657 180.811 1.02657C181.211 1.00657 181.611 0.986571 182.011 0.966571C182.411 0.946572 182.841 0.926571 183.301 0.90657C183.581 2.30657 183.831 3.65657 184.051 4.95657C184.271 6.09657 184.491 7.26657 184.711 8.46657C184.951 9.66657 185.161 10.6866 185.341 11.5266C185.421 11.1266 185.511 10.6666 185.611 10.1466C185.711 9.60657 185.821 9.04657 185.941 8.46657C186.061 7.88657 186.171 7.30657 186.271 6.72657C186.391 6.12657 186.511 5.53657 186.631 4.95657C186.911 3.65657 187.201 2.31657 187.501 0.936572L191.161 0.48657C190.481 3.54657 189.881 6.44657 189.361 9.18657C189.121 10.3666 188.881 11.5666 188.641 12.7866C188.421 13.9866 188.211 15.1466 188.011 16.2666C187.811 17.3666 187.641 18.3966 187.501 19.3566C187.361 20.2966 187.251 21.0866 187.171 21.7266C187.111 21.7266 186.871 21.7766 186.451 21.8766C186.051 21.9566 185.581 22.0566 185.041 22.1766C184.521 22.2966 183.991 22.4166 183.451 22.5366C182.931 22.6566 182.541 22.7666 182.281 22.8666C182.161 21.2666 182.031 19.7466 181.891 18.3066C181.831 17.6866 181.761 17.0566 181.681 16.4166C181.621 15.7566 181.551 15.1266 181.471 14.5266C181.391 13.9266 181.311 13.3666 181.231 12.8466C181.151 12.3266 181.071 11.8766 180.991 11.4966C180.931 11.8766 180.851 12.3166 180.751 12.8166C180.651 13.3166 180.551 13.8466 180.451 14.4066C180.351 14.9666 180.251 15.5566 180.151 16.1766C180.051 16.7766 179.941 17.3566 179.821 17.9166C179.561 19.2566 179.281 20.6566 178.981 22.1166L174.601 23.1366ZM203.285 7.65657C203.285 8.69657 203.135 9.80657 202.835 10.9866C202.535 12.1466 202.115 13.3066 201.575 14.4666C201.035 15.6066 200.365 16.7066 199.565 17.7666C198.785 18.8066 197.895 19.7266 196.895 20.5266C195.895 21.3066 194.795 21.9366 193.595 22.4166C192.415 22.8966 191.155 23.1366 189.815 23.1366C189.535 23.1366 189.255 23.1166 188.975 23.0766C188.695 23.0566 188.415 23.0266 188.135 22.9866C188.675 20.2266 189.205 17.5366 189.725 14.9166C189.925 13.8166 190.135 12.6766 190.355 11.4966C190.575 10.2966 190.785 9.11657 190.985 7.95657C191.185 6.79657 191.375 5.68657 191.555 4.62657C191.755 3.56657 191.915 2.60657 192.035 1.74657C192.895 1.58657 193.765 1.43657 194.645 1.29657C195.525 1.15657 196.425 1.08657 197.345 1.08657C198.425 1.08657 199.335 1.25657 200.075 1.59657C200.835 1.93657 201.445 2.40657 201.905 3.00657C202.385 3.60657 202.735 4.30657 202.955 5.10657C203.175 5.90657 203.285 6.75657 203.285 7.65657ZM196.205 5.31657C195.985 6.49657 195.755 7.62657 195.515 8.70657C195.275 9.78657 195.035 10.8766 194.795 11.9766C194.555 13.0766 194.315 14.2266 194.075 15.4266C193.835 16.6266 193.605 17.9366 193.385 19.3566C193.865 19.0366 194.325 18.6066 194.765 18.0666C195.225 17.5066 195.655 16.8666 196.055 16.1466C196.455 15.4266 196.815 14.6666 197.135 13.8666C197.475 13.0666 197.765 12.2866 198.005 11.5266C198.245 10.7666 198.425 10.0566 198.545 9.39657C198.685 8.73657 198.755 8.16657 198.755 7.68657C198.755 6.94657 198.545 6.36657 198.125 5.94657C197.725 5.52657 197.085 5.31657 196.205 5.31657ZM214.548 15.5766C214.548 16.6966 214.328 17.7166 213.888 18.6366C213.468 19.5366 212.888 20.3166 212.148 20.9766C211.428 21.6366 210.568 22.1466 209.568 22.5066C208.588 22.8666 207.528 23.0466 206.388 23.0466C205.588 23.0466 204.788 22.8366 203.988 22.4166C203.188 21.9766 202.418 21.2866 201.678 20.3466L203.898 15.9966C204.038 16.2566 204.248 16.5266 204.528 16.8066C204.808 17.0666 205.118 17.2966 205.458 17.4966C205.818 17.6966 206.168 17.8666 206.508 18.0066C206.868 18.1266 207.188 18.1866 207.468 18.1866C207.708 18.1866 207.958 18.1466 208.218 18.0666C208.478 17.9866 208.718 17.8666 208.938 17.7066C209.158 17.5466 209.328 17.3666 209.448 17.1666C209.588 16.9466 209.658 16.6966 209.658 16.4166C209.658 15.9366 209.498 15.4966 209.178 15.0966C208.878 14.6766 208.498 14.2866 208.038 13.9266C207.578 13.5466 207.078 13.1666 206.538 12.7866C205.998 12.4066 205.498 12.0066 205.038 11.5866C204.598 11.1666 204.218 10.6966 203.898 10.1766C203.578 9.65657 203.418 9.07657 203.418 8.43657C203.418 7.39657 203.728 6.42657 204.348 5.52657C204.968 4.62657 205.738 3.85657 206.658 3.21657C207.598 2.55657 208.618 2.03657 209.718 1.65657C210.818 1.27657 211.858 1.08657 212.838 1.08657C213.378 1.08657 213.888 1.15657 214.368 1.29657C214.848 1.41657 215.258 1.62657 215.598 1.92657C215.958 2.20657 216.238 2.56657 216.438 3.00657C216.658 3.44657 216.768 3.99657 216.768 4.65657C216.768 4.93657 216.738 5.21657 216.678 5.49657C216.638 5.77657 216.598 6.07657 216.558 6.39657L212.208 7.65657C212.248 7.49657 212.278 7.33657 212.298 7.17657C212.338 7.01657 212.358 6.85657 212.358 6.69657C212.358 6.09657 212.248 5.66657 212.028 5.40657C211.828 5.12657 211.558 4.98657 211.218 4.98657C211.058 4.98657 210.858 5.04657 210.618 5.16657C210.398 5.28657 210.168 5.44657 209.928 5.64657C209.708 5.82657 209.518 6.04657 209.358 6.30657C209.198 6.56657 209.118 6.84657 209.118 7.14657C209.118 7.62657 209.248 8.02657 209.508 8.34657C209.788 8.66657 210.128 8.96657 210.528 9.24657C210.928 9.52657 211.358 9.81657 211.818 10.1166C212.298 10.3966 212.738 10.7666 213.138 11.2266C213.538 11.6866 213.868 12.2666 214.128 12.9666C214.408 13.6466 214.548 14.5166 214.548 15.5766Z" fill="white"/>
</svg>
